<svg xmlns="http://www.w3.org/2000/svg" xmlns:xlink="http://www.w3.org/1999/xlink" viewBox="0 0 1000 1000" width="1000" height="1000" preserveAspectRatio="xMidYMid meet" style="width: 100%; height: 100%; transform: translate3d(0px, 0px, 0px); content-visibility: visible;"><defs><clipPath id="__lottie_element_2691"><rect width="1000" height="1000" x="0" y="0"></rect></clipPath><g id="__lottie_element_2693"><g transform="matrix(0.5600000023841858,0,0,0.5600000023841858,-522.8927612304688,-92.48309326171875)" opacity="0.99" style="display: block;"><g opacity="1" transform="matrix(5.671279430389404,1.766406774520874,-1.766406774520874,5.671279430389404,1801.1390380859375,934.1640014648438)"><path fill="rgb(5,66,94)" fill-opacity="1" d=" M78.73500061035156,-34.70800018310547 C78.73500061035156,-34.70800018310547 80.6780014038086,-28.718000411987305 80.6780014038086,-28.718000411987305 C80.6780014038086,-28.718000411987305 -58.9640007019043,72.31900024414062 -58.9640007019043,72.31900024414062 C-58.9640007019043,72.31900024414062 -68.91600036621094,40.15399932861328 -68.91600036621094,40.15399932861328 C-68.91600036621094,40.15399932861328 36.053001403808594,-53.59000015258789 58.00600051879883,-46.11399841308594 C67.30500030517578,-42.946998596191406 73.80799865722656,-40.66600036621094 74.43499755859375,-40.27299880981445 C76.41300201416016,-39.034000396728516 77.97699737548828,-37.111000061035156 78.73500061035156,-34.70800018310547z"></path></g></g></g><filter id="__lottie_element_2699" filterUnits="objectBoundingBox" x="0%" y="0%" width="100%" height="100%"><feComponentTransfer in="SourceGraphic"><feFuncA type="table" tableValues="1.0 0.0"></feFuncA></feComponentTransfer></filter><mask id="__lottie_element_2693_2" mask-type="alpha"><g filter="url(#__lottie_element_2699)"><rect width="1000" height="1000" x="0" y="0" fill="#ffffff" opacity="0"></rect><use xlink:href="#__lottie_element_2693"></use></g></mask></defs><g clip-path="url(#__lottie_element_2691)"><g transform="matrix(0.9100000262260437,0,0,0.9190999865531921,480,540)" opacity="1" style="display: block;"><g opacity="1" transform="matrix(-1.113864541053772,-0.11707188189029694,0.11707188189029694,-1.113864541053772,2,-75)"><path fill="rgb(5,66,94)" fill-opacity="0.15" d=" M-52.704959869384766,-389.76678466796875 C196.603271484375,-434.21575927734375 412.1972961425781,-272.8867492675781 381.3097839355469,30.355945587158203 C355.84222412109375,300.25372314453125 155.52301025390625,386.51739501953125 -42.7004280090332,374.12451171875 C-242.9563751220703,361.48028564453125 -315.3244323730469,242.89476013183594 -380.72259521484375,8.87118911743164 C-451.15081787109375,-244.8793487548828 -282.8812255859375,-350.7139587402344 -52.704959869384766,-389.76678466796875z"></path></g><g opacity="1" transform="matrix(1,0,0,1,2,-19)"><path fill="rgb(5,66,94)" fill-opacity="0.2" d=" M-52.704959869384766,-389.76678466796875 C196.603271484375,-434.21575927734375 412.1972961425781,-272.8867492675781 381.3097839355469,30.355945587158203 C355.84222412109375,300.25372314453125 155.52301025390625,386.51739501953125 -42.7004280090332,374.12451171875 C-242.9563751220703,361.48028564453125 -315.3244323730469,242.89476013183594 -380.72259521484375,8.87118911743164 C-451.15081787109375,-244.8793487548828 -282.8812255859375,-350.7139587402344 -52.704959869384766,-389.76678466796875z"></path></g></g><g transform="matrix(0.5600000023841858,0,0,0.5600000023841858,-522.8927612304688,-92.48309326171875)" opacity="0.99" style="display: block;"><g opacity="1" transform="matrix(5.671279430389404,1.766406774520874,-1.766406774520874,5.671279430389404,1785.1390380859375,947.1640014648438)"><path fill="rgb(0,0,0)" fill-opacity="0.2" d=" M78.73500061035156,-34.70800018310547 C78.73500061035156,-34.70800018310547 103.17500305175781,43.82400131225586 103.17500305175781,43.82400131225586 C103.53500366210938,44.98099899291992 103.67500305175781,46.15999984741211 103.625,47.301998138427734 C103.44499969482422,51.4640007019043 100.68499755859375,55.25699996948242 96.48500061035156,56.564998626708984 C96.48500061035156,56.564998626708984 -39.904998779296875,99.01399993896484 -39.904998779296875,99.01399993896484 C-44.125,100.3290023803711 -48.564998626708984,98.73899841308594 -51.064998626708984,95.38700103759766 C-51.744998931884766,94.48400115966797 -52.275001525878906,93.4540023803711 -52.6349983215332,92.31800079345703 C-52.6349983215332,92.31800079345703 -77.06500244140625,13.819000244140625 -77.06500244140625,13.819000244140625 C-77.77200317382812,11.545999526977539 -77.41999816894531,9.932999610900879 -76.63200378417969,7.874000072479248 C-75.6989974975586,5.434999942779541 -21.424999237060547,-10.03600025177002 -6.934999942779541,-15.232000350952148 C-4.73799991607666,-16.020000457763672 -2.174999952316284,-16.81999969482422 0.09000000357627869,-17.42300033569336 C15.008999824523926,-21.39699935913086 72.32599639892578,-41.59400177001953 74.43499755859375,-40.27299880981445 C76.41300201416016,-39.034000396728516 77.97699737548828,-37.111000061035156 78.73500061035156,-34.70800018310547z M78.73500061035156,-34.70800018310547 C78.73500061035156,-34.70800018310547 103.17500305175781,43.82400131225586 103.17500305175781,43.82400131225586 C103.53500366210938,44.98099899291992 103.67500305175781,46.15999984741211 103.625,47.301998138427734 C103.44499969482422,51.4640007019043 100.68499755859375,55.25699996948242 96.48500061035156,56.564998626708984 C96.48500061035156,56.564998626708984 -39.904998779296875,99.01399993896484 -39.904998779296875,99.01399993896484 C-44.125,100.3290023803711 -48.564998626708984,98.73899841308594 -51.064998626708984,95.38700103759766 C-51.744998931884766,94.48400115966797 -52.275001525878906,93.4540023803711 -52.6349983215332,92.31800079345703 C-52.6349983215332,92.31800079345703 -77.06500244140625,13.819000244140625 -77.06500244140625,13.819000244140625 C-77.77200317382812,11.545999526977539 -77.41999816894531,9.932999610900879 -76.63200378417969,7.874000072479248 C-75.6989974975586,5.434999942779541 -21.424999237060547,-10.03600025177002 -6.934999942779541,-15.232000350952148 C-4.73799991607666,-16.020000457763672 -2.174999952316284,-16.81999969482422 0.09000000357627869,-17.42300033569336 C15.008999824523926,-21.39699935913086 72.32599639892578,-41.59400177001953 74.43499755859375,-40.27299880981445 C76.41300201416016,-39.034000396728516 77.97699737548828,-37.111000061035156 78.73500061035156,-34.70800018310547z"></path></g><g opacity="1" transform="matrix(5.671279430389404,1.766406774520874,-1.766406774520874,5.671279430389404,1801.1390380859375,934.1640014648438)"><path fill="rgb(5,66,94)" fill-opacity="1" d=" M78.73500061035156,-34.70800018310547 C78.73500061035156,-34.70800018310547 103.17500305175781,43.82400131225586 103.17500305175781,43.82400131225586 C103.53500366210938,44.98099899291992 103.67500305175781,46.15999984741211 103.625,47.301998138427734 C103.44499969482422,51.4640007019043 100.68499755859375,55.25699996948242 96.48500061035156,56.564998626708984 C96.48500061035156,56.564998626708984 -39.904998779296875,99.01399993896484 -39.904998779296875,99.01399993896484 C-44.125,100.3290023803711 -48.564998626708984,98.73899841308594 -51.064998626708984,95.38700103759766 C-51.744998931884766,94.48400115966797 -52.275001525878906,93.4540023803711 -52.6349983215332,92.31800079345703 C-52.6349983215332,92.31800079345703 -77.06500244140625,13.819000244140625 -77.06500244140625,13.819000244140625 C-77.77200317382812,11.545999526977539 -77.41999816894531,9.932999610900879 -76.63200378417969,7.874000072479248 C-75.6989974975586,5.434999942779541 -32.50899887084961,-52.69499969482422 -21.15399932861328,-67.95800018310547 C-19.433000564575195,-70.27200317382812 -16.871999740600586,-71.08200073242188 -14.137999534606934,-70.18000030517578 C3.869999885559082,-64.23500061035156 72.32599639892578,-41.59400177001953 74.43499755859375,-40.27299880981445 C76.41300201416016,-39.034000396728516 77.97699737548828,-37.111000061035156 78.73500061035156,-34.70800018310547z M78.73500061035156,-34.70800018310547 C78.73500061035156,-34.70800018310547 103.17500305175781,43.82400131225586 103.17500305175781,43.82400131225586 C103.53500366210938,44.98099899291992 103.67500305175781,46.15999984741211 103.625,47.301998138427734 C103.44499969482422,51.4640007019043 100.68499755859375,55.25699996948242 96.48500061035156,56.564998626708984 C96.48500061035156,56.564998626708984 -39.904998779296875,99.01399993896484 -39.904998779296875,99.01399993896484 C-44.125,100.3290023803711 -48.564998626708984,98.73899841308594 -51.064998626708984,95.38700103759766 C-51.744998931884766,94.48400115966797 -52.275001525878906,93.4540023803711 -52.6349983215332,92.31800079345703 C-52.6349983215332,92.31800079345703 -77.06500244140625,13.819000244140625 -77.06500244140625,13.819000244140625 C-77.77200317382812,11.545999526977539 -77.41999816894531,9.932999610900879 -76.63200378417969,7.874000072479248 C-75.6989974975586,5.434999942779541 -32.50899887084961,-52.69499969482422 -21.15399932861328,-67.95800018310547 C-19.433000564575195,-70.27200317382812 -16.871999740600586,-71.08200073242188 -14.137999534606934,-70.18000030517578 C3.869999885559082,-64.23500061035156 72.32599639892578,-41.59400177001953 74.43499755859375,-40.27299880981445 C76.41300201416016,-39.034000396728516 77.97699737548828,-37.111000061035156 78.73500061035156,-34.70800018310547z"></path></g><g opacity="1" transform="matrix(5.671279430389404,1.766406774520874,-1.766406774520874,5.671279430389404,1801.1390380859375,766.153564453125)"><g opacity="1" transform="matrix(1,0,0,1,-1792,-1153)"><path fill="rgb(236,242,251)" fill-opacity="1" d=" M1861.2080078125,1111.7490234375 C1861.2080078125,1111.7490234375 1886.1209716796875,1191.5579833984375 1886.1209716796875,1191.5579833984375 C1887.27294921875,1195.248046875 1885.2139892578125,1199.1729736328125 1881.5240478515625,1200.324951171875 C1881.5240478515625,1200.324951171875 1753.446044921875,1240.4090576171875 1753.446044921875,1240.4090576171875 C1749.7559814453125,1241.56103515625 1745.8299560546875,1239.5030517578125 1744.677978515625,1235.81298828125 C1744.677978515625,1235.81298828125 1719.7650146484375,1156.0050048828125 1719.7650146484375,1156.0050048828125 C1718.613037109375,1152.31494140625 1720.6719970703125,1148.3890380859375 1724.362060546875,1147.237060546875 C1724.362060546875,1147.237060546875 1852.4410400390625,1107.1529541015625 1852.4410400390625,1107.1529541015625 C1856.1309814453125,1106.0009765625 1860.0560302734375,1108.0589599609375 1861.2080078125,1111.7490234375z M1861.2080078125,1111.7490234375 C1861.2080078125,1111.7490234375 1886.1209716796875,1191.5579833984375 1886.1209716796875,1191.5579833984375 C1887.27294921875,1195.248046875 1885.2139892578125,1199.1729736328125 1881.5240478515625,1200.324951171875 C1881.5240478515625,1200.324951171875 1753.446044921875,1240.4090576171875 1753.446044921875,1240.4090576171875 C1749.7559814453125,1241.56103515625 1745.8299560546875,1239.5030517578125 1744.677978515625,1235.81298828125 C1744.677978515625,1235.81298828125 1719.7650146484375,1156.0050048828125 1719.7650146484375,1156.0050048828125 C1718.613037109375,1152.31494140625 1720.6719970703125,1148.3890380859375 1724.362060546875,1147.237060546875 C1724.362060546875,1147.237060546875 1852.4410400390625,1107.1529541015625 1852.4410400390625,1107.1529541015625 C1856.1309814453125,1106.0009765625 1860.0560302734375,1108.0589599609375 1861.2080078125,1111.7490234375z"></path></g><g opacity="1" transform="matrix(1,0,0,1,-1792,-1153)"><path stroke-linecap="round" stroke-linejoin="round" fill-opacity="0" stroke="rgb(5,66,94)" stroke-opacity="1" stroke-width="5" d=" M1746.43505859375,1170.5889892578125 C1746.43505859375,1170.5889892578125 1844.1240234375,1140.1510009765625 1844.1240234375,1140.1510009765625 M1746.43505859375,1170.5889892578125 C1746.43505859375,1170.5889892578125 1844.1240234375,1140.1510009765625 1844.1240234375,1140.1510009765625 M1741.751953125,1155.5560302734375 C1741.751953125,1155.5560302734375 1787.5150146484375,1141.3780517578125 1787.5150146484375,1141.3780517578125 M1741.751953125,1155.5560302734375 C1741.751953125,1155.5560302734375 1787.5150146484375,1141.3780517578125 1787.5150146484375,1141.3780517578125 M-774.5,1954.6 C-774.5,1954.6 -724.08,2043.64 -724.08,2043.64 M-774.5,1954.6 C-774.5,1954.6 -724.08,2043.64 -724.08,2043.64 M-760.8,1946.84 C-760.8,1946.84 -737.25,1988.57 -737.25,1988.57 M-760.8,1946.84 C-760.8,1946.84 -737.25,1988.57 -737.25,1988.57 M-774.5,1954.6 C-774.5,1954.6 -724.08,2043.64 -724.08,2043.64 M-774.5,1954.6 C-774.5,1954.6 -724.08,2043.64 -724.08,2043.64 M-760.8,1946.84 C-760.8,1946.84 -737.25,1988.57 -737.25,1988.57 M-760.8,1946.84 C-760.8,1946.84 -737.25,1988.57 -737.25,1988.57 M-774.5,1954.6 C-774.5,1954.6 -724.08,2043.64 -724.08,2043.64 M-774.5,1954.6 C-774.5,1954.6 -724.08,2043.64 -724.08,2043.64 M-760.8,1946.84 C-760.8,1946.84 -737.25,1988.57 -737.25,1988.57 M-760.8,1946.84 C-760.8,1946.84 -737.25,1988.57 -737.25,1988.57 M-774.5,1954.6 C-774.5,1954.6 -724.08,2043.64 -724.08,2043.64 M-774.5,1954.6 C-774.5,1954.6 -724.08,2043.64 -724.08,2043.64 M-760.8,1946.84 C-760.8,1946.84 -737.25,1988.57 -737.25,1988.57 M-760.8,1946.84 C-760.8,1946.84 -737.25,1988.57 -737.25,1988.57 M1761.44,1215.59 C1761.44,1215.59 1859.12,1185.15 1859.12,1185.15 M1756.75,1200.56 C1756.75,1200.56 1802.52,1186.38 1802.52,1186.38 M-759.5,1999.6 C-759.5,1999.6 -709.08,2088.64 -709.08,2088.64 M-745.8,1991.84 C-745.8,1991.84 -722.25,2033.57 -722.25,2033.57 M-759.5,1999.6 C-759.5,1999.6 -709.08,2088.64 -709.08,2088.64 M-745.8,1991.84 C-745.8,1991.84 -722.25,2033.57 -722.25,2033.57 M-759.5,1999.6 C-759.5,1999.6 -709.08,2088.64 -709.08,2088.64 M-745.8,1991.84 C-745.8,1991.84 -722.25,2033.57 -722.25,2033.57 M-759.5,1999.6 C-759.5,1999.6 -709.08,2088.64 -709.08,2088.64 M-745.8,1991.84 C-745.8,1991.84 -722.25,2033.57 -722.25,2033.57 M1756.44,1200.59 C1756.44,1200.59 1854.12,1170.15 1854.12,1170.15 M1751.75,1185.56 C1751.75,1185.56 1797.52,1171.38 1797.52,1171.38 M-764.5,1984.6 C-764.5,1984.6 -714.08,2073.64 -714.08,2073.64 M-750.8,1976.84 C-750.8,1976.84 -727.25,2018.57 -727.25,2018.57 M-764.5,1984.6 C-764.5,1984.6 -714.08,2073.64 -714.08,2073.64 M-750.8,1976.84 C-750.8,1976.84 -727.25,2018.57 -727.25,2018.57 M-764.5,1984.6 C-764.5,1984.6 -714.08,2073.64 -714.08,2073.64 M-750.8,1976.84 C-750.8,1976.84 -727.25,2018.57 -727.25,2018.57 M-764.5,1984.6 C-764.5,1984.6 -714.08,2073.64 -714.08,2073.64 M-750.8,1976.84 C-750.8,1976.84 -727.25,2018.57 -727.25,2018.57 M1751.44,1185.59 C1751.44,1185.59 1849.12,1155.15 1849.12,1155.15 M1746.75,1170.56 C1746.75,1170.56 1792.52,1156.38 1792.52,1156.38 M-769.5,1969.6 C-769.5,1969.6 -719.08,2058.64 -719.08,2058.64 M-755.8,1961.84 C-755.8,1961.84 -732.25,2003.57 -732.25,2003.57 M-769.5,1969.6 C-769.5,1969.6 -719.08,2058.64 -719.08,2058.64 M-755.8,1961.84 C-755.8,1961.84 -732.25,2003.57 -732.25,2003.57 M-769.5,1969.6 C-769.5,1969.6 -719.08,2058.64 -719.08,2058.64 M-755.8,1961.84 C-755.8,1961.84 -732.25,2003.57 -732.25,2003.57 M-769.5,1969.6 C-769.5,1969.6 -719.08,2058.64 -719.08,2058.64 M-755.8,1961.84 C-755.8,1961.84 -732.25,2003.57 -732.25,2003.57 M1746.43505859375,1170.5889892578125 C1746.43505859375,1170.5889892578125 1844.1240234375,1140.1510009765625 1844.1240234375,1140.1510009765625 M1741.751953125,1155.5560302734375 C1741.751953125,1155.5560302734375 1787.5150146484375,1141.3780517578125 1787.5150146484375,1141.3780517578125 M-774.5,1954.6 C-774.5,1954.6 -724.08,2043.64 -724.08,2043.64 M-760.8,1946.84 C-760.8,1946.84 -737.25,1988.57 -737.25,1988.57 M-774.5,1954.6 C-774.5,1954.6 -724.08,2043.64 -724.08,2043.64 M-760.8,1946.84 C-760.8,1946.84 -737.25,1988.57 -737.25,1988.57 M-774.5,1954.6 C-774.5,1954.6 -724.08,2043.64 -724.08,2043.64 M-760.8,1946.84 C-760.8,1946.84 -737.25,1988.57 -737.25,1988.57 M-774.5,1954.6 C-774.5,1954.6 -724.08,2043.64 -724.08,2043.64 M-760.8,1946.84 C-760.8,1946.84 -737.25,1988.57 -737.25,1988.57"></path><g opacity="1" transform="matrix(1,0,0,1,15,45)"><g opacity="1" transform="matrix(0.21161995828151703,0.9773520231246948,-0.9773520231246948,0.21161995828151703,0,0)"></g><g opacity="1" transform="matrix(0.21161995828151703,0.9773520231246948,-0.9773520231246948,0.21161995828151703,0,0)"></g><g opacity="1" transform="matrix(0.21161995828151703,0.9773520231246948,-0.9773520231246948,0.21161995828151703,0,0)"></g><g opacity="1" transform="matrix(0.21161995828151703,0.9773520231246948,-0.9773520231246948,0.21161995828151703,0,0)"></g></g><g opacity="1" transform="matrix(1,0,0,1,10,30)"><g opacity="1" transform="matrix(0.21161995828151703,0.9773520231246948,-0.9773520231246948,0.21161995828151703,0,0)"></g><g opacity="1" transform="matrix(0.21161995828151703,0.9773520231246948,-0.9773520231246948,0.21161995828151703,0,0)"></g><g opacity="1" transform="matrix(0.21161995828151703,0.9773520231246948,-0.9773520231246948,0.21161995828151703,0,0)"></g><g opacity="1" transform="matrix(0.21161995828151703,0.9773520231246948,-0.9773520231246948,0.21161995828151703,0,0)"></g></g><g opacity="1" transform="matrix(1,0,0,1,5,15)"><g opacity="1" transform="matrix(0.21161995828151703,0.9773520231246948,-0.9773520231246948,0.21161995828151703,0,0)"></g><g opacity="1" transform="matrix(0.21161995828151703,0.9773520231246948,-0.9773520231246948,0.21161995828151703,0,0)"></g><g opacity="1" transform="matrix(0.21161995828151703,0.9773520231246948,-0.9773520231246948,0.21161995828151703,0,0)"></g><g opacity="1" transform="matrix(0.21161995828151703,0.9773520231246948,-0.9773520231246948,0.21161995828151703,0,0)"></g></g><g opacity="1" transform="matrix(1,0,0,1,0,0)"><g opacity="1" transform="matrix(0.21161995828151703,0.9773520231246948,-0.9773520231246948,0.21161995828151703,0,0)"></g><g opacity="1" transform="matrix(0.21161995828151703,0.9773520231246948,-0.9773520231246948,0.21161995828151703,0,0)"></g><g opacity="1" transform="matrix(0.21161995828151703,0.9773520231246948,-0.9773520231246948,0.21161995828151703,0,0)"></g><g opacity="1" transform="matrix(0.21161995828151703,0.9773520231246948,-0.9773520231246948,0.21161995828151703,0,0)"></g></g></g></g><g opacity="1" transform="matrix(5.671279430389404,1.766406774520874,-1.766406774520874,5.671279430389404,1801.1390380859375,934.1640014648438)"><path fill="rgb(5,66,94)" fill-opacity="1" d=" M78.95800018310547,-33.9900016784668 C78.95800018310547,-33.9900016784668 103.17500305175781,43.82400131225586 103.17500305175781,43.82400131225586 C103.53500366210938,44.98099899291992 103.67500305175781,46.15999984741211 103.625,47.301998138427734 C103.44499969482422,51.4640007019043 100.68499755859375,55.25699996948242 96.48500061035156,56.564998626708984 C96.48500061035156,56.564998626708984 -39.904998779296875,99.01399993896484 -39.904998779296875,99.01399993896484 C-44.125,100.3290023803711 -48.564998626708984,98.73899841308594 -51.064998626708984,95.38700103759766 C-51.744998931884766,94.48400115966797 -52.275001525878906,93.4540023803711 -52.6349983215332,92.31800079345703 C-52.6349983215332,92.31800079345703 -76.84100341796875,14.536999702453613 -76.84100341796875,14.536999702453613 C-78.51100158691406,9.164999961853027 -74.7030029296875,6.060999870300293 -68.3290023803711,7.683000087738037 C-68.3290023803711,7.683000087738037 12.317000389099121,29.180999755859375 12.317000389099121,29.180999755859375 C12.317000389099121,29.180999755859375 68.06099700927734,-34.76599884033203 68.06099700927734,-34.76599884033203 C72.19999694824219,-39.37900161743164 77.26799774169922,-39.34400177001953 78.95800018310547,-33.9900016784668z M78.95800018310547,-33.9900016784668 C78.95800018310547,-33.9900016784668 103.17500305175781,43.82400131225586 103.17500305175781,43.82400131225586 C103.53500366210938,44.98099899291992 103.67500305175781,46.15999984741211 103.625,47.301998138427734 C103.44499969482422,51.4640007019043 100.68499755859375,55.25699996948242 96.48500061035156,56.564998626708984 C96.48500061035156,56.564998626708984 -39.904998779296875,99.01399993896484 -39.904998779296875,99.01399993896484 C-44.125,100.3290023803711 -48.564998626708984,98.73899841308594 -51.064998626708984,95.38700103759766 C-51.744998931884766,94.48400115966797 -52.275001525878906,93.4540023803711 -52.6349983215332,92.31800079345703 C-52.6349983215332,92.31800079345703 -76.84100341796875,14.536999702453613 -76.84100341796875,14.536999702453613 C-78.51100158691406,9.164999961853027 -74.7030029296875,6.060999870300293 -68.3290023803711,7.683000087738037 C-68.3290023803711,7.683000087738037 12.317000389099121,29.180999755859375 12.317000389099121,29.180999755859375 C12.317000389099121,29.180999755859375 68.06099700927734,-34.76599884033203 68.06099700927734,-34.76599884033203 C72.19999694824219,-39.37900161743164 77.26799774169922,-39.34400177001953 78.95800018310547,-33.9900016784668z M103.572998046875,47.13399887084961 C103.42400360107422,51.39400100708008 100.68499755859375,55.25699996948242 96.48500061035156,56.564998626708984 C96.48500061035156,56.564998626708984 -39.904998779296875,99.01300048828125 -39.904998779296875,99.01300048828125 C-44.125,100.3280029296875 -48.5880012512207,98.66699981689453 -51.11800003051758,95.21700286865234 C-51.11800003051758,95.21700286865234 5.468999862670898,25.01099967956543 5.468999862670898,25.01099967956543 C5.468999862670898,25.01099967956543 8.102999687194824,21.832000732421875 10.819999694824219,21.020000457763672 C13.536999702453613,20.20800018310547 17.107999801635742,21.540000915527344 17.107999801635742,21.540000915527344 C17.107999801635742,21.540000915527344 103.572998046875,47.13399887084961 103.572998046875,47.13399887084961z M103.572998046875,47.13399887084961 C103.42400360107422,51.39400100708008 100.68499755859375,55.25699996948242 96.48500061035156,56.564998626708984 C96.48500061035156,56.564998626708984 -39.904998779296875,99.01300048828125 -39.904998779296875,99.01300048828125 C-44.125,100.3280029296875 -48.5880012512207,98.66699981689453 -51.11800003051758,95.21700286865234 C-51.11800003051758,95.21700286865234 5.468999862670898,25.01099967956543 5.468999862670898,25.01099967956543 C5.468999862670898,25.01099967956543 8.102999687194824,21.832000732421875 10.819999694824219,21.020000457763672 C13.536999702453613,20.20800018310547 17.107999801635742,21.540000915527344 17.107999801635742,21.540000915527344 C17.107999801635742,21.540000915527344 103.572998046875,47.13399887084961 103.572998046875,47.13399887084961z M103.625,47.301998138427734 C103.44499969482422,51.4640007019043 100.68499755859375,55.25699996948242 96.48500061035156,56.564998626708984 C96.48500061035156,56.564998626708984 -39.904998779296875,99.01399993896484 -39.904998779296875,99.01399993896484 C-44.125,100.3290023803711 -48.564998626708984,98.73899841308594 -51.064998626708984,95.38700103759766 C-51.064998626708984,95.38700103759766 5.9019999504089355,26.402000427246094 5.9019999504089355,26.402000427246094 C5.9019999504089355,26.402000427246094 8.553000450134277,23.277999877929688 11.270000457763672,22.46500015258789 C13.987000465393066,21.652000427246094 17.541000366210938,22.927000045776367 17.541000366210938,22.927000045776367 C17.541000366210938,22.927000045776367 103.625,47.301998138427734 103.625,47.301998138427734z M103.625,47.301998138427734 C103.44499969482422,51.4640007019043 100.68499755859375,55.25699996948242 96.48500061035156,56.564998626708984 C96.48500061035156,56.564998626708984 -39.904998779296875,99.01399993896484 -39.904998779296875,99.01399993896484 C-44.125,100.3290023803711 -48.564998626708984,98.73899841308594 -51.064998626708984,95.38700103759766 C-51.064998626708984,95.38700103759766 5.9019999504089355,26.402000427246094 5.9019999504089355,26.402000427246094 C5.9019999504089355,26.402000427246094 8.553000450134277,23.277999877929688 11.270000457763672,22.46500015258789 C13.987000465393066,21.652000427246094 17.541000366210938,22.927000045776367 17.541000366210938,22.927000045776367 C17.541000366210938,22.927000045776367 103.625,47.301998138427734 103.625,47.301998138427734z M-73.9260025024414,5.758999824523926 C-73.927001953125,5.761000156402588 -73.93099975585938,5.769000053405762 -73.93399810791016,5.77400016784668 C-73.93399810791016,5.77400016784668 -73.93399810791016,5.7769999504089355 -73.93299865722656,5.7779998779296875 C-73.93199920654297,5.78000020980835 -73.93199920654297,5.781000137329102 -73.93199920654297,5.781000137329102 C-73.93199920654297,5.781000137329102 -73.90799713134766,5.7729997634887695 -73.90799713134766,5.7729997634887695 C-73.90799713134766,5.7729997634887695 -73.90699768066406,5.7729997634887695 -73.90799713134766,5.769999980926514 C-73.90799713134766,5.769000053405762 -73.90899658203125,5.767000198364258 -73.90899658203125,5.767000198364258 C-73.91400146484375,5.763999938964844 -73.9229965209961,5.758999824523926 -73.92500305175781,5.758999824523926 C-73.92500305175781,5.758999824523926 -73.9260025024414,5.758999824523926 -73.9260025024414,5.758999824523926z M-73.9260025024414,5.758999824523926 C-73.927001953125,5.761000156402588 -73.93099975585938,5.769000053405762 -73.93399810791016,5.77400016784668 C-73.93399810791016,5.77400016784668 -73.93399810791016,5.7769999504089355 -73.93299865722656,5.7779998779296875 C-73.93199920654297,5.78000020980835 -73.93199920654297,5.781000137329102 -73.93199920654297,5.781000137329102 C-73.93199920654297,5.781000137329102 -73.90799713134766,5.7729997634887695 -73.90799713134766,5.7729997634887695 C-73.90799713134766,5.7729997634887695 -73.90699768066406,5.7729997634887695 -73.90799713134766,5.769999980926514 C-73.90799713134766,5.769000053405762 -73.90899658203125,5.767000198364258 -73.90899658203125,5.767000198364258 C-73.91400146484375,5.763999938964844 -73.9229965209961,5.758999824523926 -73.92500305175781,5.758999824523926 C-73.92500305175781,5.758999824523926 -73.9260025024414,5.758999824523926 -73.9260025024414,5.758999824523926z"></path><path fill="rgb(32,32,32)" fill-opacity="0.3" d=" M103.572998046875,47.13399887084961 C103.42400360107422,51.39400100708008 100.68499755859375,55.25699996948242 96.48500061035156,56.564998626708984 C96.48500061035156,56.564998626708984 -39.904998779296875,99.01300048828125 -39.904998779296875,99.01300048828125 C-44.125,100.3280029296875 -48.5880012512207,98.66699981689453 -51.11800003051758,95.21700286865234 C-51.11800003051758,95.21700286865234 5.468999862670898,25.01099967956543 5.468999862670898,25.01099967956543 C5.468999862670898,25.01099967956543 8.102999687194824,21.832000732421875 10.819999694824219,21.020000457763672 C13.536999702453613,20.20800018310547 17.107999801635742,21.540000915527344 17.107999801635742,21.540000915527344 C17.107999801635742,21.540000915527344 103.572998046875,47.13399887084961 103.572998046875,47.13399887084961z M103.572998046875,47.13399887084961 C103.42400360107422,51.39400100708008 100.68499755859375,55.25699996948242 96.48500061035156,56.564998626708984 C96.48500061035156,56.564998626708984 -39.904998779296875,99.01300048828125 -39.904998779296875,99.01300048828125 C-44.125,100.3280029296875 -48.5880012512207,98.66699981689453 -51.11800003051758,95.21700286865234 C-51.11800003051758,95.21700286865234 5.468999862670898,25.01099967956543 5.468999862670898,25.01099967956543 C5.468999862670898,25.01099967956543 8.102999687194824,21.832000732421875 10.819999694824219,21.020000457763672 C13.536999702453613,20.20800018310547 17.107999801635742,21.540000915527344 17.107999801635742,21.540000915527344 C17.107999801635742,21.540000915527344 103.572998046875,47.13399887084961 103.572998046875,47.13399887084961z M103.625,47.301998138427734 C103.44499969482422,51.4640007019043 100.68499755859375,55.25699996948242 96.48500061035156,56.564998626708984 C96.48500061035156,56.564998626708984 -39.904998779296875,99.01399993896484 -39.904998779296875,99.01399993896484 C-44.125,100.3290023803711 -48.564998626708984,98.73899841308594 -51.064998626708984,95.38700103759766 C-51.064998626708984,95.38700103759766 5.9019999504089355,26.402000427246094 5.9019999504089355,26.402000427246094 C5.9019999504089355,26.402000427246094 8.553000450134277,23.277999877929688 11.270000457763672,22.46500015258789 C13.987000465393066,21.652000427246094 17.541000366210938,22.927000045776367 17.541000366210938,22.927000045776367 C17.541000366210938,22.927000045776367 103.625,47.301998138427734 103.625,47.301998138427734z M103.625,47.301998138427734 C103.44499969482422,51.4640007019043 100.68499755859375,55.25699996948242 96.48500061035156,56.564998626708984 C96.48500061035156,56.564998626708984 -39.904998779296875,99.01399993896484 -39.904998779296875,99.01399993896484 C-44.125,100.3290023803711 -48.564998626708984,98.73899841308594 -51.064998626708984,95.38700103759766 C-51.064998626708984,95.38700103759766 5.9019999504089355,26.402000427246094 5.9019999504089355,26.402000427246094 C5.9019999504089355,26.402000427246094 8.553000450134277,23.277999877929688 11.270000457763672,22.46500015258789 C13.987000465393066,21.652000427246094 17.541000366210938,22.927000045776367 17.541000366210938,22.927000045776367 C17.541000366210938,22.927000045776367 103.625,47.301998138427734 103.625,47.301998138427734z M-73.9260025024414,5.758999824523926 C-73.927001953125,5.761000156402588 -73.93099975585938,5.769000053405762 -73.93399810791016,5.77400016784668 C-73.93399810791016,5.77400016784668 -73.93399810791016,5.7769999504089355 -73.93299865722656,5.7779998779296875 C-73.93199920654297,5.78000020980835 -73.93199920654297,5.781000137329102 -73.93199920654297,5.781000137329102 C-73.93199920654297,5.781000137329102 -73.90799713134766,5.7729997634887695 -73.90799713134766,5.7729997634887695 C-73.90799713134766,5.7729997634887695 -73.90699768066406,5.7729997634887695 -73.90799713134766,5.769999980926514 C-73.90799713134766,5.769000053405762 -73.90899658203125,5.767000198364258 -73.90899658203125,5.767000198364258 C-73.91400146484375,5.763999938964844 -73.9229965209961,5.758999824523926 -73.92500305175781,5.758999824523926 C-73.92500305175781,5.758999824523926 -73.9260025024414,5.758999824523926 -73.9260025024414,5.758999824523926z M-73.9260025024414,5.758999824523926 C-73.927001953125,5.761000156402588 -73.93099975585938,5.769000053405762 -73.93399810791016,5.77400016784668 C-73.93399810791016,5.77400016784668 -73.93399810791016,5.7769999504089355 -73.93299865722656,5.7779998779296875 C-73.93199920654297,5.78000020980835 -73.93199920654297,5.781000137329102 -73.93199920654297,5.781000137329102 C-73.93199920654297,5.781000137329102 -73.90799713134766,5.7729997634887695 -73.90799713134766,5.7729997634887695 C-73.90799713134766,5.7729997634887695 -73.90699768066406,5.7729997634887695 -73.90799713134766,5.769999980926514 C-73.90799713134766,5.769000053405762 -73.90899658203125,5.767000198364258 -73.90899658203125,5.767000198364258 C-73.91400146484375,5.763999938964844 -73.9229965209961,5.758999824523926 -73.92500305175781,5.758999824523926 C-73.92500305175781,5.758999824523926 -73.9260025024414,5.758999824523926 -73.9260025024414,5.758999824523926z"></path><path fill="rgb(5,66,94)" fill-opacity="1" d=" M103.625,47.301998138427734 C103.44499969482422,51.4640007019043 100.68499755859375,55.25699996948242 96.48500061035156,56.564998626708984 C96.48500061035156,56.564998626708984 -39.904998779296875,99.01399993896484 -39.904998779296875,99.01399993896484 C-44.125,100.3290023803711 -48.564998626708984,98.73899841308594 -51.064998626708984,95.38700103759766 C-51.064998626708984,95.38700103759766 5.9019999504089355,26.402000427246094 5.9019999504089355,26.402000427246094 C5.9019999504089355,26.402000427246094 8.553000450134277,23.277999877929688 11.270000457763672,22.46500015258789 C13.987000465393066,21.652000427246094 17.541000366210938,22.927000045776367 17.541000366210938,22.927000045776367 C17.541000366210938,22.927000045776367 103.625,47.301998138427734 103.625,47.301998138427734z M103.625,47.301998138427734 C103.44499969482422,51.4640007019043 100.68499755859375,55.25699996948242 96.48500061035156,56.564998626708984 C96.48500061035156,56.564998626708984 -39.904998779296875,99.01399993896484 -39.904998779296875,99.01399993896484 C-44.125,100.3290023803711 -48.564998626708984,98.73899841308594 -51.064998626708984,95.38700103759766 C-51.064998626708984,95.38700103759766 5.9019999504089355,26.402000427246094 5.9019999504089355,26.402000427246094 C5.9019999504089355,26.402000427246094 8.553000450134277,23.277999877929688 11.270000457763672,22.46500015258789 C13.987000465393066,21.652000427246094 17.541000366210938,22.927000045776367 17.541000366210938,22.927000045776367 C17.541000366210938,22.927000045776367 103.625,47.301998138427734 103.625,47.301998138427734z M-73.9260025024414,5.758999824523926 C-73.927001953125,5.761000156402588 -73.93099975585938,5.769000053405762 -73.93399810791016,5.77400016784668 C-73.93399810791016,5.77400016784668 -73.93399810791016,5.7769999504089355 -73.93299865722656,5.7779998779296875 C-73.93199920654297,5.78000020980835 -73.93199920654297,5.781000137329102 -73.93199920654297,5.781000137329102 C-73.93199920654297,5.781000137329102 -73.90799713134766,5.7729997634887695 -73.90799713134766,5.7729997634887695 C-73.90799713134766,5.7729997634887695 -73.90699768066406,5.7729997634887695 -73.90799713134766,5.769999980926514 C-73.90799713134766,5.769000053405762 -73.90899658203125,5.767000198364258 -73.90899658203125,5.767000198364258 C-73.91400146484375,5.763999938964844 -73.9229965209961,5.758999824523926 -73.92500305175781,5.758999824523926 C-73.92500305175781,5.758999824523926 -73.9260025024414,5.758999824523926 -73.9260025024414,5.758999824523926z M-73.9260025024414,5.758999824523926 C-73.927001953125,5.761000156402588 -73.93099975585938,5.769000053405762 -73.93399810791016,5.77400016784668 C-73.93399810791016,5.77400016784668 -73.93399810791016,5.7769999504089355 -73.93299865722656,5.7779998779296875 C-73.93199920654297,5.78000020980835 -73.93199920654297,5.781000137329102 -73.93199920654297,5.781000137329102 C-73.93199920654297,5.781000137329102 -73.90799713134766,5.7729997634887695 -73.90799713134766,5.7729997634887695 C-73.90799713134766,5.7729997634887695 -73.90699768066406,5.7729997634887695 -73.90799713134766,5.769999980926514 C-73.90799713134766,5.769000053405762 -73.90899658203125,5.767000198364258 -73.90899658203125,5.767000198364258 C-73.91400146484375,5.763999938964844 -73.9229965209961,5.758999824523926 -73.92500305175781,5.758999824523926 C-73.92500305175781,5.758999824523926 -73.9260025024414,5.758999824523926 -73.9260025024414,5.758999824523926z"></path><path fill="rgb(5,66,94)" fill-opacity="0" d=" M-73.9260025024414,5.758999824523926 C-73.927001953125,5.761000156402588 -73.93099975585938,5.769000053405762 -73.93399810791016,5.77400016784668 C-73.93399810791016,5.77400016784668 -73.93399810791016,5.7769999504089355 -73.93299865722656,5.7779998779296875 C-73.93199920654297,5.78000020980835 -73.93199920654297,5.781000137329102 -73.93199920654297,5.781000137329102 C-73.93199920654297,5.781000137329102 -73.90799713134766,5.7729997634887695 -73.90799713134766,5.7729997634887695 C-73.90799713134766,5.7729997634887695 -73.90699768066406,5.7729997634887695 -73.90799713134766,5.769999980926514 C-73.90799713134766,5.769000053405762 -73.90899658203125,5.767000198364258 -73.90899658203125,5.767000198364258 C-73.91400146484375,5.763999938964844 -73.9229965209961,5.758999824523926 -73.92500305175781,5.758999824523926 C-73.92500305175781,5.758999824523926 -73.9260025024414,5.758999824523926 -73.9260025024414,5.758999824523926z M-73.9260025024414,5.758999824523926 C-73.927001953125,5.761000156402588 -73.93099975585938,5.769000053405762 -73.93399810791016,5.77400016784668 C-73.93399810791016,5.77400016784668 -73.93399810791016,5.7769999504089355 -73.93299865722656,5.7779998779296875 C-73.93199920654297,5.78000020980835 -73.93199920654297,5.781000137329102 -73.93199920654297,5.781000137329102 C-73.93199920654297,5.781000137329102 -73.90799713134766,5.7729997634887695 -73.90799713134766,5.7729997634887695 C-73.90799713134766,5.7729997634887695 -73.90699768066406,5.7729997634887695 -73.90799713134766,5.769999980926514 C-73.90799713134766,5.769000053405762 -73.90899658203125,5.767000198364258 -73.90899658203125,5.767000198364258 C-73.91400146484375,5.763999938964844 -73.9229965209961,5.758999824523926 -73.92500305175781,5.758999824523926 C-73.92500305175781,5.758999824523926 -73.9260025024414,5.758999824523926 -73.9260025024414,5.758999824523926z"></path></g></g><g transform="matrix(0.6245031356811523,0.24268463253974915,-0.24268463253974915,0.6245031356811523,-861.962890625,-468.77587890625)" opacity="1" style="display: block;"><g opacity="1" transform="matrix(1,0,0,1,2140.425048828125,652.02099609375)"><path fill="rgb(0,0,0)" fill-opacity="0.18" d=" M-4,-52.45249938964844 C31.019433975219727,-52.45249938964844 59.45249938964844,-24.019433975219727 59.45249938964844,11 C59.45249938964844,46.01943588256836 31.019433975219727,74.45249938964844 -4,74.45249938964844 C-39.01943588256836,74.45249938964844 -67.45249938964844,46.01943588256836 -67.45249938964844,11 C-67.45249938964844,-24.019433975219727 -39.01943588256836,-52.45249938964844 -4,-52.45249938964844z"></path></g><g opacity="1" transform="matrix(1,0,0,1,2140.425048828125,652.02099609375)"><path fill="rgb(225,234,245)" fill-opacity="1" d=" M0,-63.45249938964844 C35.01943588256836,-63.45249938964844 63.45249938964844,-35.01943588256836 63.45249938964844,0 C63.45249938964844,35.01943588256836 35.01943588256836,63.45249938964844 0,63.45249938964844 C-35.01943588256836,63.45249938964844 -63.45249938964844,35.01943588256836 -63.45249938964844,0 C-63.45249938964844,-35.01943588256836 -35.01943588256836,-63.45249938964844 0,-63.45249938964844z M17.93600082397461,34.33000183105469 C12.602999687194824,37.12900161743164 5.40500020980835,38.59600067138672 -1.3930000066757202,38.59600067138672 C-21.2549991607666,38.59600067138672 -35.51900100708008,25.93199920654297 -35.51900100708008,3.6700000762939453 C-35.51900100708008,-21.791000366210938 -17.6560001373291,-37.7869987487793 2.740000009536743,-37.7869987487793 C23.402000427246094,-37.7869987487793 34.597999572753906,-24.323999404907227 34.597999572753906,-6.99399995803833 C34.597999572753906,8.336000442504883 27.398000717163086,15.73900032043457 21.667999267578125,15.534000396728516 C17.93600082397461,15.401000022888184 17.003000259399414,11.802000045776367 18.336000442504883,3.937000036239624 C18.336000442504883,3.937000036239624 22.334999084472656,-20.724000930786133 22.334999084472656,-20.724000930786133 C19.00200080871582,-22.59000015258789 12.336999893188477,-24.05699920654297 6.4720001220703125,-24.05699920654297 C-12.723999977111816,-24.05699920654297 -24.722000122070312,-9.260000228881836 -24.722000122070312,7.002999782562256 C-24.722000122070312,17.93400001525879 -18.45599937438965,24.332000732421875 -9.791000366210938,24.332000732421875 C-2.7260000705718994,24.332000732421875 3.2720000743865967,20.867000579833984 7.40500020980835,14.067999839782715 C7.40500020980835,14.067999839782715 7.671000003814697,14.067999839782715 7.671000003814697,14.067999839782715 C8.338000297546387,21.132999420166016 12.869999885559082,24.332000732421875 19.13599967956543,24.332000732421875 C33.53200149536133,24.332000732421875 44.4630012512207,12.067999839782715 44.4630012512207,-7.394000053405762 C44.4630012512207,-29.788999557495117 27.66699981689453,-45.91899871826172 4.205999851226807,-45.91899871826172 C-25.92099952697754,-45.91899871826172 -45.650001525878906,-22.323999404907227 -45.650001525878906,4.869999885559082 C-45.650001525878906,30.99799919128418 -26.187000274658203,46.861000061035156 -4.059999942779541,46.861000061035156 C5.40500020980835,46.861000061035156 12.336999893188477,45.6609992980957 20.334999084472656,42.0620002746582 C20.334999084472656,42.0620002746582 17.93600082397461,34.33000183105469 17.93600082397461,34.33000183105469z M6.604000091552734,-0.32899999618530273 C5.4039998054504395,7.4029998779296875 0.20600000023841858,13.668000221252441 -4.72599983215332,13.668000221252441 C-9.12399959564209,13.668000221252441 -11.390999794006348,10.468999862670898 -11.390999794006348,5.4029998779296875 C-11.390999794006348,-4.861000061035156 -4.459000110626221,-13.526000022888184 4.339000225067139,-13.526000022888184 C6.071000099182129,-13.526000022888184 7.4039998054504395,-13.260000228881836 8.470000267028809,-12.993000030517578 C8.470000267028809,-12.993000030517578 6.604000091552734,-0.32899999618530273 6.604000091552734,-0.32899999618530273z"></path><path fill="rgb(5,66,94)" fill-opacity="1" d=" M17.93600082397461,34.33000183105469 C12.602999687194824,37.12900161743164 5.40500020980835,38.59600067138672 -1.3930000066757202,38.59600067138672 C-21.2549991607666,38.59600067138672 -35.51900100708008,25.93199920654297 -35.51900100708008,3.6700000762939453 C-35.51900100708008,-21.791000366210938 -17.6560001373291,-37.7869987487793 2.740000009536743,-37.7869987487793 C23.402000427246094,-37.7869987487793 34.597999572753906,-24.323999404907227 34.597999572753906,-6.99399995803833 C34.597999572753906,8.336000442504883 27.398000717163086,15.73900032043457 21.667999267578125,15.534000396728516 C17.93600082397461,15.401000022888184 17.003000259399414,11.802000045776367 18.336000442504883,3.937000036239624 C18.336000442504883,3.937000036239624 22.334999084472656,-20.724000930786133 22.334999084472656,-20.724000930786133 C19.00200080871582,-22.59000015258789 12.336999893188477,-24.05699920654297 6.4720001220703125,-24.05699920654297 C-12.723999977111816,-24.05699920654297 -24.722000122070312,-9.260000228881836 -24.722000122070312,7.002999782562256 C-24.722000122070312,17.93400001525879 -18.45599937438965,24.332000732421875 -9.791000366210938,24.332000732421875 C-2.7260000705718994,24.332000732421875 3.2720000743865967,20.867000579833984 7.40500020980835,14.067999839782715 C7.40500020980835,14.067999839782715 7.671000003814697,14.067999839782715 7.671000003814697,14.067999839782715 C8.338000297546387,21.132999420166016 12.869999885559082,24.332000732421875 19.13599967956543,24.332000732421875 C33.53200149536133,24.332000732421875 44.4630012512207,12.067999839782715 44.4630012512207,-7.394000053405762 C44.4630012512207,-29.788999557495117 27.66699981689453,-45.91899871826172 4.205999851226807,-45.91899871826172 C-25.92099952697754,-45.91899871826172 -45.650001525878906,-22.323999404907227 -45.650001525878906,4.869999885559082 C-45.650001525878906,30.99799919128418 -26.187000274658203,46.861000061035156 -4.059999942779541,46.861000061035156 C5.40500020980835,46.861000061035156 12.336999893188477,45.6609992980957 20.334999084472656,42.0620002746582 C20.334999084472656,42.0620002746582 17.93600082397461,34.33000183105469 17.93600082397461,34.33000183105469z M6.604000091552734,-0.32899999618530273 C5.4039998054504395,7.4029998779296875 0.20600000023841858,13.668000221252441 -4.72599983215332,13.668000221252441 C-9.12399959564209,13.668000221252441 -11.390999794006348,10.468999862670898 -11.390999794006348,5.4029998779296875 C-11.390999794006348,-4.861000061035156 -4.459000110626221,-13.526000022888184 4.339000225067139,-13.526000022888184 C6.071000099182129,-13.526000022888184 7.4039998054504395,-13.260000228881836 8.470000267028809,-12.993000030517578 C8.470000267028809,-12.993000030517578 6.604000091552734,-0.32899999618530273 6.604000091552734,-0.32899999618530273z"></path></g></g><g transform="matrix(0.8199999928474426,0,0,0.8199999928474426,479.0188293457031,848.044921875)" opacity="1" style="display: block;"><g opacity="1" transform="matrix(1,0,0,1,200.25,-287)"><path fill="rgb(0,0,0)" fill-opacity="0.17" d=" M127.75,-39.5 C127.75,-39.5 127.75,51.5 127.75,51.5 C127.75,57.01900100708008 123.26899719238281,61.5 117.75,61.5 C117.75,61.5 -129.75,61.5 -129.75,61.5 C-135.2689971923828,61.5 -139.75,57.01900100708008 -139.75,51.5 C-139.75,51.5 -139.75,-39.5 -139.75,-39.5 C-139.75,-45.01900100708008 -135.2689971923828,-49.5 -129.75,-49.5 C-129.75,-49.5 117.75,-49.5 117.75,-49.5 C123.26899719238281,-49.5 127.75,-45.01900100708008 127.75,-39.5z M127.75,-39.5 C127.75,-39.5 127.75,51.5 127.75,51.5 C127.75,57.01900100708008 123.26899719238281,61.5 117.75,61.5 C117.75,61.5 -129.75,61.5 -129.75,61.5 C-135.2689971923828,61.5 -139.75,57.01900100708008 -139.75,51.5 C-139.75,51.5 -139.75,-39.5 -139.75,-39.5 C-139.75,-45.01900100708008 -135.2689971923828,-49.5 -129.75,-49.5 C-129.75,-49.5 117.75,-49.5 117.75,-49.5 C123.26899719238281,-49.5 127.75,-45.01900100708008 127.75,-39.5z M133.75,-45.5 C133.75,-45.5 133.75,45.5 133.75,45.5 C133.75,51.01900100708008 129.2689971923828,55.5 123.75,55.5 C123.75,55.5 -123.75,55.5 -123.75,55.5 C-129.2689971923828,55.5 -133.75,51.01900100708008 -133.75,45.5 C-133.75,45.5 -133.75,-45.5 -133.75,-45.5 C-133.75,-51.01900100708008 -129.2689971923828,-55.5 -123.75,-55.5 C-123.75,-55.5 123.75,-55.5 123.75,-55.5 C129.2689971923828,-55.5 133.75,-51.01900100708008 133.75,-45.5z M133.75,-45.5 C133.75,-45.5 133.75,45.5 133.75,45.5 C133.75,51.01900100708008 129.2689971923828,55.5 123.75,55.5 C123.75,55.5 -123.75,55.5 -123.75,55.5 C-129.2689971923828,55.5 -133.75,51.01900100708008 -133.75,45.5 C-133.75,45.5 -133.75,-45.5 -133.75,-45.5 C-133.75,-51.01900100708008 -129.2689971923828,-55.5 -123.75,-55.5 C-123.75,-55.5 123.75,-55.5 123.75,-55.5 C129.2689971923828,-55.5 133.75,-51.01900100708008 133.75,-45.5z M-74,-46.75 C-48.198673248291016,-46.75 -27.25,-25.80132484436035 -27.25,0 C-27.25,25.80132484436035 -48.198673248291016,46.75 -74,46.75 C-99.80132293701172,46.75 -120.75,25.80132484436035 -120.75,0 C-120.75,-25.80132484436035 -99.80132293701172,-46.75 -74,-46.75z M-74,-46.75 C-48.198673248291016,-46.75 -27.25,-25.80132484436035 -27.25,0 C-27.25,25.80132484436035 -48.198673248291016,46.75 -74,46.75 C-99.80132293701172,46.75 -120.75,25.80132484436035 -120.75,0 C-120.75,-25.80132484436035 -99.80132293701172,-46.75 -74,-46.75z M-74,-32 C-63.36899948120117,-32 -54.75,-23.381000518798828 -54.75,-12.75 C-54.75,-3.9839999675750732 -60.60900115966797,7.322999954223633 -68.625,11.020999908447266 C-69.45600128173828,11.404999732971191 -45,13.625 -43.935001373291016,27.259000778198242 C-48.75,33.875 -60.625,40.25 -74,40.25 C-88.3759994506836,40.25 -100.375,32.125 -105.00199890136719,26.947999954223633 C-104.375,13.25 -79.21700286865234,11.142999649047852 -80.26799774169922,10.572999954223633 C-87.8219985961914,6.478000164031982 -93.25,-4.313000202178955 -93.25,-12.75 C-93.25,-23.381000518798828 -84.63099670410156,-32 -74,-32z M-74,-32 C-63.36899948120117,-32 -54.75,-23.381000518798828 -54.75,-12.75 C-54.75,-3.9839999675750732 -60.60900115966797,7.322999954223633 -68.625,11.020999908447266 C-69.45600128173828,11.404999732971191 -45,13.625 -43.935001373291016,27.259000778198242 C-48.75,33.875 -60.625,40.25 -74,40.25 C-88.3759994506836,40.25 -100.375,32.125 -105.00199890136719,26.947999954223633 C-104.375,13.25 -79.21700286865234,11.142999649047852 -80.26799774169922,10.572999954223633 C-87.8219985961914,6.478000164031982 -93.25,-4.313000202178955 -93.25,-12.75 C-93.25,-23.381000518798828 -84.63099670410156,-32 -74,-32z"></path><path fill="rgb(255,255,255)" fill-opacity="1" d=" M133.75,-45.5 C133.75,-45.5 133.75,45.5 133.75,45.5 C133.75,51.01900100708008 129.2689971923828,55.5 123.75,55.5 C123.75,55.5 -123.75,55.5 -123.75,55.5 C-129.2689971923828,55.5 -133.75,51.01900100708008 -133.75,45.5 C-133.75,45.5 -133.75,-45.5 -133.75,-45.5 C-133.75,-51.01900100708008 -129.2689971923828,-55.5 -123.75,-55.5 C-123.75,-55.5 123.75,-55.5 123.75,-55.5 C129.2689971923828,-55.5 133.75,-51.01900100708008 133.75,-45.5z M133.75,-45.5 C133.75,-45.5 133.75,45.5 133.75,45.5 C133.75,51.01900100708008 129.2689971923828,55.5 123.75,55.5 C123.75,55.5 -123.75,55.5 -123.75,55.5 C-129.2689971923828,55.5 -133.75,51.01900100708008 -133.75,45.5 C-133.75,45.5 -133.75,-45.5 -133.75,-45.5 C-133.75,-51.01900100708008 -129.2689971923828,-55.5 -123.75,-55.5 C-123.75,-55.5 123.75,-55.5 123.75,-55.5 C129.2689971923828,-55.5 133.75,-51.01900100708008 133.75,-45.5z M-74,-46.75 C-48.198673248291016,-46.75 -27.25,-25.80132484436035 -27.25,0 C-27.25,25.80132484436035 -48.198673248291016,46.75 -74,46.75 C-99.80132293701172,46.75 -120.75,25.80132484436035 -120.75,0 C-120.75,-25.80132484436035 -99.80132293701172,-46.75 -74,-46.75z M-74,-46.75 C-48.198673248291016,-46.75 -27.25,-25.80132484436035 -27.25,0 C-27.25,25.80132484436035 -48.198673248291016,46.75 -74,46.75 C-99.80132293701172,46.75 -120.75,25.80132484436035 -120.75,0 C-120.75,-25.80132484436035 -99.80132293701172,-46.75 -74,-46.75z M-74,-32 C-63.36899948120117,-32 -54.75,-23.381000518798828 -54.75,-12.75 C-54.75,-3.9839999675750732 -60.60900115966797,7.322999954223633 -68.625,11.020999908447266 C-69.45600128173828,11.404999732971191 -45,13.625 -43.935001373291016,27.259000778198242 C-48.75,33.875 -60.625,40.25 -74,40.25 C-88.3759994506836,40.25 -100.375,32.125 -105.00199890136719,26.947999954223633 C-104.375,13.25 -79.21700286865234,11.142999649047852 -80.26799774169922,10.572999954223633 C-87.8219985961914,6.478000164031982 -93.25,-4.313000202178955 -93.25,-12.75 C-93.25,-23.381000518798828 -84.63099670410156,-32 -74,-32z M-74,-32 C-63.36899948120117,-32 -54.75,-23.381000518798828 -54.75,-12.75 C-54.75,-3.9839999675750732 -60.60900115966797,7.322999954223633 -68.625,11.020999908447266 C-69.45600128173828,11.404999732971191 -45,13.625 -43.935001373291016,27.259000778198242 C-48.75,33.875 -60.625,40.25 -74,40.25 C-88.3759994506836,40.25 -100.375,32.125 -105.00199890136719,26.947999954223633 C-104.375,13.25 -79.21700286865234,11.142999649047852 -80.26799774169922,10.572999954223633 C-87.8219985961914,6.478000164031982 -93.25,-4.313000202178955 -93.25,-12.75 C-93.25,-23.381000518798828 -84.63099670410156,-32 -74,-32z"></path><path fill="rgb(223,229,243)" fill-opacity="1" d=" M-74,-46.75 C-48.198673248291016,-46.75 -27.25,-25.80132484436035 -27.25,0 C-27.25,25.80132484436035 -48.198673248291016,46.75 -74,46.75 C-99.80132293701172,46.75 -120.75,25.80132484436035 -120.75,0 C-120.75,-25.80132484436035 -99.80132293701172,-46.75 -74,-46.75z M-74,-46.75 C-48.198673248291016,-46.75 -27.25,-25.80132484436035 -27.25,0 C-27.25,25.80132484436035 -48.198673248291016,46.75 -74,46.75 C-99.80132293701172,46.75 -120.75,25.80132484436035 -120.75,0 C-120.75,-25.80132484436035 -99.80132293701172,-46.75 -74,-46.75z M-74,-32 C-63.36899948120117,-32 -54.75,-23.381000518798828 -54.75,-12.75 C-54.75,-3.9839999675750732 -60.60900115966797,7.322999954223633 -68.625,11.020999908447266 C-69.45600128173828,11.404999732971191 -45,13.625 -43.935001373291016,27.259000778198242 C-48.75,33.875 -60.625,40.25 -74,40.25 C-88.3759994506836,40.25 -100.375,32.125 -105.00199890136719,26.947999954223633 C-104.375,13.25 -79.21700286865234,11.142999649047852 -80.26799774169922,10.572999954223633 C-87.8219985961914,6.478000164031982 -93.25,-4.313000202178955 -93.25,-12.75 C-93.25,-23.381000518798828 -84.63099670410156,-32 -74,-32z M-74,-32 C-63.36899948120117,-32 -54.75,-23.381000518798828 -54.75,-12.75 C-54.75,-3.9839999675750732 -60.60900115966797,7.322999954223633 -68.625,11.020999908447266 C-69.45600128173828,11.404999732971191 -45,13.625 -43.935001373291016,27.259000778198242 C-48.75,33.875 -60.625,40.25 -74,40.25 C-88.3759994506836,40.25 -100.375,32.125 -105.00199890136719,26.947999954223633 C-104.375,13.25 -79.21700286865234,11.142999649047852 -80.26799774169922,10.572999954223633 C-87.8219985961914,6.478000164031982 -93.25,-4.313000202178955 -93.25,-12.75 C-93.25,-23.381000518798828 -84.63099670410156,-32 -74,-32z"></path><path fill="rgb(255,255,255)" fill-opacity="1" d=" M-74,-32 C-63.36899948120117,-32 -54.75,-23.381000518798828 -54.75,-12.75 C-54.75,-3.9839999675750732 -60.60900115966797,7.322999954223633 -68.625,11.020999908447266 C-69.45600128173828,11.404999732971191 -45,13.625 -43.935001373291016,27.259000778198242 C-48.75,33.875 -60.625,40.25 -74,40.25 C-88.3759994506836,40.25 -100.375,32.125 -105.00199890136719,26.947999954223633 C-104.375,13.25 -79.21700286865234,11.142999649047852 -80.26799774169922,10.572999954223633 C-87.8219985961914,6.478000164031982 -93.25,-4.313000202178955 -93.25,-12.75 C-93.25,-23.381000518798828 -84.63099670410156,-32 -74,-32z M-74,-32 C-63.36899948120117,-32 -54.75,-23.381000518798828 -54.75,-12.75 C-54.75,-3.9839999675750732 -60.60900115966797,7.322999954223633 -68.625,11.020999908447266 C-69.45600128173828,11.404999732971191 -45,13.625 -43.935001373291016,27.259000778198242 C-48.75,33.875 -60.625,40.25 -74,40.25 C-88.3759994506836,40.25 -100.375,32.125 -105.00199890136719,26.947999954223633 C-104.375,13.25 -79.21700286865234,11.142999649047852 -80.26799774169922,10.572999954223633 C-87.8219985961914,6.478000164031982 -93.25,-4.313000202178955 -93.25,-12.75 C-93.25,-23.381000518798828 -84.63099670410156,-32 -74,-32z"></path></g><g opacity="1" transform="matrix(1,0,0,1,0,0)"><path stroke-linecap="round" stroke-linejoin="round" fill-opacity="0" stroke="transparent" stroke-opacity="1" stroke-width="10" d=" M192.5,-298 C192.5,-298 313,-298 313,-298 M192.5,-298 C192.5,-298 313,-298 313,-298 M331.99,125.08 C331.99,125.08 357.49,242.85 357.49,242.85 M331.99,125.08 C331.99,125.08 357.49,242.85 357.49,242.85 M331.99,125.08 C331.99,125.08 357.49,242.85 357.49,242.85 M331.99,125.08 C331.99,125.08 357.49,242.85 357.49,242.85 M331.99,125.08 C331.99,125.08 357.49,242.85 357.49,242.85 M331.99,125.08 C331.99,125.08 357.49,242.85 357.49,242.85 M192.5,-256 C192.5,-256 313,-256 313,-256 M331.99,167.08 C331.99,167.08 357.49,284.85 357.49,284.85 M331.99,167.08 C331.99,167.08 357.49,284.85 357.49,284.85 M331.99,167.08 C331.99,167.08 357.49,284.85 357.49,284.85 M192.5,-277 C192.5,-277 313,-277 313,-277 M331.99,146.08 C331.99,146.08 357.49,263.85 357.49,263.85 M331.99,146.08 C331.99,146.08 357.49,263.85 357.49,263.85 M331.99,146.08 C331.99,146.08 357.49,263.85 357.49,263.85 M192.5,-298 C192.5,-298 313,-298 313,-298 M331.99,125.08 C331.99,125.08 357.49,242.85 357.49,242.85 M331.99,125.08 C331.99,125.08 357.49,242.85 357.49,242.85 M331.99,125.08 C331.99,125.08 357.49,242.85 357.49,242.85"></path><g opacity="1" transform="matrix(1,0,0,1,0,42)"><g opacity="1" transform="matrix(0.21161995828151703,0.9773520231246948,-0.9773520231246948,0.21161995828151703,0,0)"></g><g opacity="1" transform="matrix(0.21161995828151703,0.9773520231246948,-0.9773520231246948,0.21161995828151703,0,0)"></g><g opacity="1" transform="matrix(0.21161995828151703,0.9773520231246948,-0.9773520231246948,0.21161995828151703,0,0)"></g></g><g opacity="1" transform="matrix(1,0,0,1,0,21)"><g opacity="1" transform="matrix(0.21161995828151703,0.9773520231246948,-0.9773520231246948,0.21161995828151703,0,0)"></g><g opacity="1" transform="matrix(0.21161995828151703,0.9773520231246948,-0.9773520231246948,0.21161995828151703,0,0)"></g><g opacity="1" transform="matrix(0.21161995828151703,0.9773520231246948,-0.9773520231246948,0.21161995828151703,0,0)"></g></g><g opacity="1" transform="matrix(1,0,0,1,0,0)"><g opacity="1" transform="matrix(0.21161995828151703,0.9773520231246948,-0.9773520231246948,0.21161995828151703,0,0)"></g><g opacity="1" transform="matrix(0.21161995828151703,0.9773520231246948,-0.9773520231246948,0.21161995828151703,0,0)"></g><g opacity="1" transform="matrix(0.21161995828151703,0.9773520231246948,-0.9773520231246948,0.21161995828151703,0,0)"></g></g></g><g opacity="1" transform="matrix(1,0,0,1,0,0)"><path stroke-linecap="round" stroke-linejoin="round" fill-opacity="0" stroke="rgb(5,66,94)" stroke-opacity="1" stroke-width="10" d=" M192.5,-319.5 C192.5,-319.5 250.5,-319.5 250.5,-319.5 M192.5,-319.5 C192.5,-319.5 250.5,-319.5 250.5,-319.5"></path></g></g><g mask="url(#__lottie_element_2693_2)" style="display: block;"><g transform="matrix(0.5613787174224854,-0.3276490569114685,0.3276490569114685,0.5613787174224854,-195.1763916015625,292.1501159667969)" opacity="1"><g opacity="1" transform="matrix(1,0,0,1,790.9019775390625,773.677978515625)"><path fill="rgb(0,0,0)" fill-opacity="0.2" d=" M7.104976654052734,-10.971261978149414 C7.104976654052734,-10.971261978149414 -93.13337707519531,-15.332453727722168 -93.13337707519531,-15.332453727722168 C-93.13337707519531,-15.332453727722168 12.649450302124023,2.3536078929901123 12.649450302124023,2.3536078929901123 C12.649450302124023,2.3536078929901123 33.65176773071289,11.640251159667969 33.65176773071289,11.640251159667969 C33.65176773071289,11.640251159667969 31.387664794921875,-10.69013500213623 31.387664794921875,-10.69013500213623 C31.387664794921875,-10.69013500213623 7.104976654052734,-10.971261978149414 7.104976654052734,-10.971261978149414z M-95.53169250488281,-14.50766658782959 C-95.53169250488281,-14.50766658782959 31.980661392211914,-10.100298881530762 31.980661392211914,-10.100298881530762 C31.980661392211914,-10.100298881530762 57.32443618774414,-30.015701293945312 57.32443618774414,-30.015701293945312 C57.32443618774414,-30.015701293945312 -95.53169250488281,-14.50766658782959 -95.53169250488281,-14.50766658782959z M28.355079650878906,-2.4066648483276367 C28.355079650878906,-2.4066648483276367 -95.53169250488281,-14.50766658782959 -95.53169250488281,-14.50766658782959 C-95.53169250488281,-14.50766658782959 50.14597702026367,47.95280838012695 50.14597702026367,47.95280838012695 C50.14597702026367,47.95280838012695 28.355079650878906,-2.4066648483276367 28.355079650878906,-2.4066648483276367z"></path></g><g opacity="1" transform="matrix(1,0,0,1,795.9019775390625,768.677978515625)"><path fill="rgb(255,120,0)" fill-opacity="1" d=" M7.104976654052734,-10.971261978149414 C7.104976654052734,-10.971261978149414 -93.13337707519531,-15.332453727722168 -93.13337707519531,-15.332453727722168 C-93.13337707519531,-15.332453727722168 12.649450302124023,2.3536078929901123 12.649450302124023,2.3536078929901123 C12.649450302124023,2.3536078929901123 33.65176773071289,11.640251159667969 33.65176773071289,11.640251159667969 C33.65176773071289,11.640251159667969 31.387664794921875,-10.69013500213623 31.387664794921875,-10.69013500213623 C31.387664794921875,-10.69013500213623 7.104976654052734,-10.971261978149414 7.104976654052734,-10.971261978149414z M-95.53169250488281,-14.50766658782959 C-95.53169250488281,-14.50766658782959 31.980661392211914,-10.100298881530762 31.980661392211914,-10.100298881530762 C31.980661392211914,-10.100298881530762 57.32443618774414,-30.015701293945312 57.32443618774414,-30.015701293945312 C57.32443618774414,-30.015701293945312 -95.53169250488281,-14.50766658782959 -95.53169250488281,-14.50766658782959z M28.355079650878906,-2.4066648483276367 C28.355079650878906,-2.4066648483276367 -95.53169250488281,-14.50766658782959 -95.53169250488281,-14.50766658782959 C-95.53169250488281,-14.50766658782959 50.14597702026367,47.95280838012695 50.14597702026367,47.95280838012695 C50.14597702026367,47.95280838012695 28.355079650878906,-2.4066648483276367 28.355079650878906,-2.4066648483276367z"></path><path fill="rgb(255,144,20)" fill-opacity="1" d=" M-95.53169250488281,-14.50766658782959 C-95.53169250488281,-14.50766658782959 31.980661392211914,-10.100298881530762 31.980661392211914,-10.100298881530762 C31.980661392211914,-10.100298881530762 57.32443618774414,-30.015701293945312 57.32443618774414,-30.015701293945312 C57.32443618774414,-30.015701293945312 -95.53169250488281,-14.50766658782959 -95.53169250488281,-14.50766658782959z M28.355079650878906,-2.4066648483276367 C28.355079650878906,-2.4066648483276367 -95.53169250488281,-14.50766658782959 -95.53169250488281,-14.50766658782959 C-95.53169250488281,-14.50766658782959 50.14597702026367,47.95280838012695 50.14597702026367,47.95280838012695 C50.14597702026367,47.95280838012695 28.355079650878906,-2.4066648483276367 28.355079650878906,-2.4066648483276367z"></path></g></g></g></g></svg>