<svg xmlns="http://www.w3.org/2000/svg" xmlns:xlink="http://www.w3.org/1999/xlink" viewBox="0 0 800 591" width="800" height="591" preserveAspectRatio="xMidYMid meet" style="width: 100%; height: 100%; transform: translate3d(0px, 0px, 0px); content-visibility: visible;"><defs><clipPath id="__lottie_element_1135"><rect width="800" height="591" x="0" y="0"></rect></clipPath><clipPath id="__lottie_element_1138"><path d="M0,0 L596,0 L596,305 L0,305z"></path></clipPath><clipPath id="__lottie_element_1229"><path d="M0,0 L250,0 L250,310 L0,310z"></path></clipPath><clipPath id="__lottie_element_1319"><path d="M0,0 L155,0 L155,73 L0,73z"></path></clipPath></defs><g clip-path="url(#__lottie_element_1135)"><g clip-path="url(#__lottie_element_1319)" style="display: none;"><g style="display: none;"><g><path></path></g></g><g style="display: none;"><g><path></path></g></g><g style="display: none;"><g><path></path></g></g><g style="display: none;"><g><path></path></g></g><g style="display: none;"><g><path></path></g></g><g style="display: none;"><g><path></path></g></g><g style="display: none;"><g><path></path></g></g><g style="display: none;"><g><path></path></g></g></g><g transform="matrix(1,0,0,1,149.85000610351562,381.3500061035156)" opacity="1" style="display: block;"><g opacity="1" transform="matrix(1,0,0,1,0,0)"><path fill="rgb(245,166,35)" fill-opacity="1" d=" M5.050000190734863,201.5500030517578 C-33.650001525878906,201.5500030517578 -62.150001525878906,191.85000610351562 -80.44999694824219,172.35000610351562 C-98.75,152.85000610351562 -108.44999694824219,120.3499984741211 -109.55000305175781,74.75 C-109.55000305175781,74.75 -28.450000762939453,64.1500015258789 -28.450000762939453,64.1500015258789 C-28.450000762939453,77.05000305175781 -27.75,87.8499984741211 -26.350000381469727,96.6500015258789 C-24.950000762939453,105.44999694824219 -22.850000381469727,112.1500015258789 -20.25,116.8499984741211 C-17.549999237060547,121.44999694824219 -14.75,124.75 -11.649999618530273,126.6500015258789 C-8.550000190734863,128.5500030517578 -5.050000190734863,129.4499969482422 -0.949999988079071,129.4499969482422 C9.75,129.4499969482422 15.050000190734863,121.75 15.050000190734863,106.3499984741211 C15.050000190734863,91.25 11.649999618530273,78.25 4.75,67.44999694824219 C-2.049999952316284,56.650001525878906 -13.050000190734863,44.75 -28.149999618530273,31.850000381469727 C-28.149999618530273,31.850000381469727 -52.95000076293945,10.850000381469727 -52.95000076293945,10.850000381469727 C-61.95000076293945,3.1500000953674316 -69.25,-3.6500000953674316 -74.94999694824219,-9.649999618530273 C-80.6500015258789,-15.649999618530273 -86.55000305175781,-22.950000762939453 -92.3499984741211,-31.649999618530273 C-98.25,-40.349998474121094 -102.6500015258789,-50.04999923706055 -105.44999694824219,-60.54999923706055 C-108.25,-71.05000305175781 -109.6500015258789,-82.75 -109.6500015258789,-95.6500015258789 C-109.6500015258789,-129.4499969482422 -99.44999694824219,-155.4499969482422 -79.1500015258789,-173.85000610351562 C-58.75,-192.14999389648438 -30.75,-201.35000610351562 5.150000095367432,-201.5500030517578 C69.25,-201.5500030517578 101.55000305175781,-163.5500030517578 102.05000305175781,-87.44999694824219 C102.05000305175781,-87.44999694824219 19.049999237060547,-79.25 19.049999237060547,-79.25 C19.049999237060547,-89.44999694824219 18.950000762939453,-97.1500015258789 18.649999618530273,-102.25 C18.450000762939453,-107.3499984741211 17.75,-112.6500015258789 16.649999618530273,-118.05000305175781 C15.550000190734863,-123.44999694824219 13.75,-127.25 11.350000381469727,-129.35000610351562 C8.949999809265137,-131.4499969482422 5.650000095367432,-132.5500030517578 1.5499999523162842,-132.5500030517578 C-4.25,-132.35000610351562 -8.649999618530273,-129.35000610351562 -11.649999618530273,-123.3499984741211 C-14.649999618530273,-117.3499984741211 -16.149999618530273,-111.3499984741211 -16.149999618530273,-105.1500015258789 C-16.149999618530273,-101.8499984741211 -15.850000381469727,-98.6500015258789 -15.350000381469727,-95.44999694824219 C-14.75,-92.3499984741211 -14.25,-89.55000305175781 -13.850000381469727,-87.05000305175781 C-13.350000381469727,-84.6500015258789 -12.350000381469727,-81.94999694824219 -10.75,-79.05000305175781 C-9.149999618530273,-76.1500015258789 -8.050000190734863,-73.8499984741211 -7.25,-72.05000305175781 C-6.449999809265137,-70.3499984741211 -4.849999904632568,-68.05000305175781 -2.549999952316284,-65.25 C-0.15000000596046448,-62.45000076293945 1.350000023841858,-60.45000076293945 2.1500000953674316,-59.349998474121094 C2.950000047683716,-58.25 4.849999904632568,-56.25 7.849999904632568,-53.45000076293945 C10.850000381469727,-50.650001525878906 12.649999618530273,-48.95000076293945 13.25,-48.349998474121094 C13.850000381469727,-47.75 15.949999809265137,-45.95000076293945 19.350000381469727,-42.95000076293945 C22.850000381469727,-39.849998474121094 24.649999618530273,-38.150001525878906 25.049999237060547,-37.849998474121094 C25.049999237060547,-37.849998474121094 47.650001525878906,-17.850000381469727 47.650001525878906,-17.850000381469727 C57.25,-9.25 65.3499984741211,-1.149999976158142 72.05000305175781,6.449999809265137 C78.75,13.949999809265137 85.1500015258789,22.649999618530273 91.25,32.45000076293945 C97.3499984741211,42.25 101.94999694824219,52.95000076293945 105.05000305175781,64.55000305175781 C108.1500015258789,76.05000305175781 109.6500015258789,88.55000305175781 109.6500015258789,101.94999694824219 C109.6500015258789,130.0500030517578 100.05000305175781,153.75 80.75,172.9499969482422 C61.849998474121094,191.9499969482422 36.45000076293945,201.5500030517578 5.050000190734863,201.5500030517578z"></path></g></g><g transform="matrix(1,0,0,1,393.5,381.25)" opacity="1" style="display: block;"><g opacity="1" transform="matrix(1,0,0,1,0,0)"><path fill="rgb(245,166,35)" fill-opacity="1" d=" M-92,195.4499969482422 C-92,195.4499969482422 -92,-195.4499969482422 -92,-195.4499969482422 C-92,-195.4499969482422 91,-195.4499969482422 91,-195.4499969482422 C91,-195.4499969482422 91,-131.35000610351562 91,-131.35000610351562 C91,-131.35000610351562 3.799999952316284,-131.35000610351562 3.799999952316284,-131.35000610351562 C3.799999952316284,-131.35000610351562 3.799999952316284,-44.150001525878906 3.799999952316284,-44.150001525878906 C3.799999952316284,-44.150001525878906 68.9000015258789,-44.150001525878906 68.9000015258789,-44.150001525878906 C68.9000015258789,-44.150001525878906 68.9000015258789,22.350000381469727 68.9000015258789,22.350000381469727 C68.9000015258789,22.350000381469727 3.799999952316284,22.350000381469727 3.799999952316284,22.350000381469727 C3.799999952316284,22.350000381469727 3.799999952316284,131.5500030517578 3.799999952316284,131.5500030517578 C3.799999952316284,131.5500030517578 92,131.5500030517578 92,131.5500030517578 C92,131.5500030517578 92,195.4499969482422 92,195.4499969482422 C92,195.4499969482422 -92,195.4499969482422 -92,195.4499969482422z"></path></g></g><g transform="matrix(1,0,0,1,639.75,381.3000183105469)" opacity="1" style="display: block;"><g opacity="1" transform="matrix(1,0,0,1,0,0)"><path fill="rgb(245,166,35)" fill-opacity="1" d=" M-0.3499999940395355,135.3000030517578 C4.849999904632568,135.3000030517578 9.050000190734863,134.1999969482422 12.350000381469727,131.89999389648438 C15.649999618530273,129.60000610351562 18.049999237060547,126.30000305175781 19.450000762939453,121.9000015258789 C20.850000381469727,117.5 21.75,113.5 22.149999618530273,109.9000015258789 C22.549999237060547,106.30000305175781 22.75,101.80000305175781 22.75,96.5 C22.75,96.5 22.75,-96.69999694824219 22.75,-96.69999694824219 C22.75,-102 22.549999237060547,-106.5 22.149999618530273,-110.0999984741211 C21.75,-113.69999694824219 20.850000381469727,-117.69999694824219 19.450000762939453,-122 C18.049999237060547,-126.30000305175781 15.649999618530273,-129.60000610351562 12.350000381469727,-131.89999389648438 C9.050000190734863,-134.1999969482422 4.849999904632568,-135.3000030517578 -0.3499999940395355,-135.3000030517578 C-4.550000190734863,-135.3000030517578 -8.25,-134.39999389648438 -11.149999618530273,-132.6999969482422 C-14.149999618530273,-131 -16.350000381469727,-129 -17.850000381469727,-126.69999694824219 C-19.350000381469727,-124.4000015258789 -20.450000762939453,-121.30000305175781 -21.25,-117.30000305175781 C-22.049999237060547,-113.30000305175781 -22.450000762939453,-110 -22.549999237060547,-107.4000015258789 C-22.649999618530273,-104.80000305175781 -22.649999618530273,-101.19999694824219 -22.649999618530273,-96.69999694824219 C-22.649999618530273,-96.69999694824219 -22.649999618530273,96.4000015258789 -22.649999618530273,96.4000015258789 C-22.649999618530273,100.80000305175781 -22.649999618530273,104.30000305175781 -22.549999237060547,107 C-22.450000762939453,109.69999694824219 -22.049999237060547,113 -21.25,117 C-20.450000762939453,121 -19.350000381469727,124.19999694824219 -17.850000381469727,126.4000015258789 C-16.350000381469727,128.6999969482422 -14.149999618530273,130.6999969482422 -11.149999618530273,132.5 C-8.149999618530273,134.3000030517578 -4.650000095367432,135.3000030517578 -0.3499999940395355,135.3000030517578z M56.849998474121094,193 C41.04999923706055,198.6999969482422 21.950000762939453,201.60000610351562 -0.3499999940395355,201.60000610351562 C-22.649999618530273,201.60000610351562 -41.650001525878906,198.6999969482422 -57.45000076293945,193 C-73.1500015258789,187.3000030517578 -85.6500015258789,178.6999969482422 -94.94999694824219,167.3000030517578 C-104.25,155.89999389648438 -110.94999694824219,142.5 -114.94999694824219,127 C-119.05000305175781,111.5 -121.05000305175781,93.19999694824219 -121.05000305175781,72.19999694824219 C-121.05000305175781,72.19999694824219 -121.05000305175781,-72.19999694824219 -121.05000305175781,-72.19999694824219 C-121.05000305175781,-93.30000305175781 -119.05000305175781,-111.5 -114.94999694824219,-127 C-110.8499984741211,-142.5 -104.1500015258789,-155.89999389648438 -94.94999694824219,-167.3000030517578 C-85.6500015258789,-178.6999969482422 -73.1500015258789,-187.3000030517578 -57.45000076293945,-193 C-41.75,-198.6999969482422 -22.75,-201.60000610351562 -0.3499999940395355,-201.60000610351562 C21.950000762939453,-201.60000610351562 41.04999923706055,-198.6999969482422 56.849998474121094,-193 C72.6500015258789,-187.3000030517578 85.25,-178.6999969482422 94.55000305175781,-167.3000030517578 C103.94999694824219,-155.89999389648438 110.6500015258789,-142.5 114.8499984741211,-127 C119.05000305175781,-111.5 121.05000305175781,-93.19999694824219 121.05000305175781,-72.19999694824219 C121.05000305175781,-72.19999694824219 121.05000305175781,72.0999984741211 121.05000305175781,72.0999984741211 C121.05000305175781,93.19999694824219 118.94999694824219,111.4000015258789 114.8499984741211,126.9000015258789 C110.6500015258789,142.39999389648438 103.94999694824219,155.8000030517578 94.55000305175781,167.1999969482422 C85.1500015258789,178.6999969482422 72.6500015258789,187.1999969482422 56.849998474121094,193z"></path></g></g><g clip-path="url(#__lottie_element_1229)" transform="matrix(1,0,0,1,327.4649963378906,-3.17999267578125)" opacity="1" style="display: block;"><g transform="matrix(1,0,0,1,171.86300659179688,208.29400634765625)" opacity="1" style="display: block;"><g opacity="1" transform="matrix(1,0,0,1,0,0)"><path fill="rgb(228,89,63)" fill-opacity="1" d=" M-33.231998443603516,-52.617000579833984 C-33.231998443603516,-52.617000579833984 -2.5320000648498535,-60.41699981689453 -0.03200000151991844,-55.41699981689453 C2.4679999351501465,-50.31700134277344 34.77207565307617,50.61946487426758 34.77207565307617,50.61946487426758 C34.77207565307617,50.61946487426758 26.26799964904785,57.08300018310547 26.26799964904785,57.08300018310547 C26.26799964904785,57.08300018310547 -7.831999778747559,-27.216999053955078 -17.73200035095215,-36.016998291015625 C-27.73200035095215,-44.81700134277344 -37.832000732421875,-49.117000579833984 -33.231998443603516,-52.617000579833984z"></path></g></g><g transform="matrix(0.9950578212738037,0.09929695725440979,-0.09929695725440979,0.9950578212738037,219.0222625732422,268.7428283691406)" opacity="1" style="display: block;"><g opacity="1" transform="matrix(1,0,0,1,0,0)"><path fill="rgb(17,1,56)" fill-opacity="1" d=" M-21.239999771118164,-1.187000036239624 C-21.239999771118164,-1.187000036239624 -13.140000343322754,-8.786999702453613 -13.140000343322754,-8.786999702453613 C-13.140000343322754,-8.786999702453613 19.260000228881836,-11.187000274658203 21.15999984741211,-8.286999702453613 C23.059999465942383,-5.486999988555908 -9.640000343322754,9.913000106811523 -13.84000015258789,9.713000297546387 C-17.940000534057617,9.312999725341797 -20.639999389648438,1.9129999876022339 -21.239999771118164,-1.187000036239624z"></path></g></g><g transform="matrix(0.9998889565467834,-0.014901476912200451,0.014901476912200451,0.9998889565467834,101.72027587890625,108.66897583007812)" opacity="1" style="display: block;"><g opacity="1" transform="matrix(1,0,0,1,0,0)"><path fill="rgb(0,186,209)" fill-opacity="1" d=" M-13.449000358581543,-32.99599838256836 C-13.449000358581543,-32.99599838256836 -2.4489998817443848,6.703999996185303 2.9509999752044678,13.204000473022461 C8.35099983215332,19.70400047302246 26.051000595092773,29.304000854492188 26.051000595092773,29.304000854492188 C26.051000595092773,29.304000854492188 21.35099983215332,37.604000091552734 21.35099983215332,37.604000091552734 C21.35099983215332,37.604000091552734 -10.74899959564209,21.20400047302246 -16.349000930786133,7.803999900817871 C-19.548999786376953,0.004000000189989805 -21.749000549316406,-6.696000099182129 -22.849000930786133,-12.795999526977539 C-23.749000549316406,-17.695999145507812 -27.349000930786133,-29.895999908447266 -25.548999786376953,-34.79600143432617 C-24.448999404907227,-37.99599838256836 -16.048999786376953,-39.69599914550781 -13.449000358581543,-32.99599838256836z"></path></g></g><g transform="matrix(0.9998889565467834,-0.014901476912200451,0.014901476912200451,0.9998889565467834,101.72027587890625,108.66897583007812)" opacity="0.65" style="display: block;"><g opacity="1" transform="matrix(1,0,0,1,0,0)"><path fill="rgb(0,161,204)" fill-opacity="1" d=" M-13.449000358581543,-32.99599838256836 C-13.449000358581543,-32.99599838256836 -2.4489998817443848,6.703999996185303 2.9509999752044678,13.204000473022461 C8.35099983215332,19.70400047302246 26.051000595092773,29.304000854492188 26.051000595092773,29.304000854492188 C26.051000595092773,29.304000854492188 21.35099983215332,37.604000091552734 21.35099983215332,37.604000091552734 C21.35099983215332,37.604000091552734 -10.74899959564209,21.20400047302246 -16.349000930786133,7.803999900817871 C-19.548999786376953,0.004000000189989805 -21.749000549316406,-6.696000099182129 -22.849000930786133,-12.795999526977539 C-23.749000549316406,-17.695999145507812 -27.349000930786133,-29.895999908447266 -25.548999786376953,-34.79600143432617 C-24.448999404907227,-37.99599838256836 -16.048999786376953,-39.69599914550781 -13.449000358581543,-32.99599838256836z"></path></g></g><g transform="matrix(0.9998889565467834,-0.014901476912200451,0.014901476912200451,0.9998889565467834,132.95767211914062,137.98974609375)" opacity="1" style="display: block;"><g opacity="1" transform="matrix(1,0,0,1,0,0)"><path fill="rgb(248,133,103)" fill-opacity="1" d=" M-9.251999855041504,-1.4759999513626099 C-6.952000141143799,-2.0759999752044678 -5.052000045776367,-2.875999927520752 -2.8519999980926514,-4.076000213623047 C-1.1519999504089355,-4.97599983215332 0.5479999780654907,-5.875999927520752 2.5480000972747803,-5.576000213623047 C4.047999858856201,-5.375999927520752 15.748000144958496,-0.47600001096725464 12.64799976348877,1.7239999771118164 C11.64799976348877,2.4240000247955322 9.04800033569336,1.2239999771118164 8.04800033569336,0.8240000009536743 C6.6479997634887695,0.3240000009536743 5.1479997634887695,-0.37599998712539673 3.747999906539917,-0.9760000109672546 C5.047999858856201,-1.0759999752044678 11.347999572753906,1.6239999532699585 10.748000144958496,3.124000072479248 C9.54800033569336,5.723999977111816 3.1480000019073486,2.2239999771118164 1.6480000019073486,1.4240000247955322 C2.747999906539917,1.6239999532699585 6.748000144958496,3.124000072479248 6.748000144958496,4.52400016784668 C6.748000144958496,6.823999881744385 1.9479999542236328,4.923999786376953 0.9480000138282776,4.423999786376953 C0.14800000190734863,4.02400016784668 -0.35199999809265137,3.5239999294281006 -1.2519999742507935,3.3239998817443848 C-2.252000093460083,3.2239999771118164 -3.252000093460083,3.624000072479248 -4.1519999504089355,3.8239998817443848 C-5.751999855041504,4.124000072479248 -7.552000045776367,4.124000072479248 -9.152000427246094,3.9240000247955322 C-10.152000427246094,3.8239998817443848 -12.45199966430664,4.02400016784668 -12.95199966430664,3.2239999771118164 C-13.45199966430664,2.3239998817443848 -13.052000045776367,0.3240000009536743 -12.35200023651123,-0.37599998712539673 C-11.45199966430664,-1.0759999752044678 -10.35200023651123,-1.1759999990463257 -9.251999855041504,-1.4759999513626099z"></path></g></g><g transform="matrix(0.9998889565467834,-0.014901476912200451,0.014901476912200451,0.9998889565467834,132.95767211914062,137.98974609375)" opacity="1" style="display: block;"><g opacity="1" transform="matrix(1,0,0,1,0,0)"><path fill="rgb(228,89,63)" fill-opacity="1" d=" M-9.251999855041504,-1.4759999513626099 C-6.952000141143799,-2.0759999752044678 -5.052000045776367,-2.875999927520752 -2.8519999980926514,-4.076000213623047 C-1.1519999504089355,-4.97599983215332 0.5479999780654907,-5.875999927520752 2.5480000972747803,-5.576000213623047 C4.047999858856201,-5.375999927520752 15.748000144958496,-0.47600001096725464 12.64799976348877,1.7239999771118164 C11.64799976348877,2.4240000247955322 9.04800033569336,1.2239999771118164 8.04800033569336,0.8240000009536743 C6.6479997634887695,0.3240000009536743 5.1479997634887695,-0.37599998712539673 3.747999906539917,-0.9760000109672546 C5.047999858856201,-1.0759999752044678 11.347999572753906,1.6239999532699585 10.748000144958496,3.124000072479248 C9.54800033569336,5.723999977111816 3.1480000019073486,2.2239999771118164 1.6480000019073486,1.4240000247955322 C2.747999906539917,1.6239999532699585 6.748000144958496,3.124000072479248 6.748000144958496,4.52400016784668 C6.748000144958496,6.823999881744385 1.9479999542236328,4.923999786376953 0.9480000138282776,4.423999786376953 C0.14800000190734863,4.02400016784668 -0.35199999809265137,3.5239999294281006 -1.2519999742507935,3.3239998817443848 C-2.252000093460083,3.2239999771118164 -3.252000093460083,3.624000072479248 -4.1519999504089355,3.8239998817443848 C-5.751999855041504,4.124000072479248 -7.552000045776367,4.124000072479248 -9.152000427246094,3.9240000247955322 C-10.152000427246094,3.8239998817443848 -12.45199966430664,4.02400016784668 -12.95199966430664,3.2239999771118164 C-13.45199966430664,2.3239998817443848 -13.052000045776367,0.3240000009536743 -12.35200023651123,-0.37599998712539673 C-11.45199966430664,-1.0759999752044678 -10.35200023651123,-1.1759999990463257 -9.251999855041504,-1.4759999513626099z"></path></g></g><g transform="matrix(1,0,0,1,167.0850067138672,115.68000030517578)" opacity="1" style="display: block;"><g opacity="1" transform="matrix(1,0,0,1,0,0)"><path fill="rgb(17,1,56)" fill-opacity="1" d=" M8.850000381469727,-31.399999618530273 C8.850000381469727,-31.399999618530273 16.049999237060547,-28.399999618530273 16.049999237060547,-28.399999618530273 C16.049999237060547,-28.399999618530273 -8.75,31.399999618530273 -8.75,31.399999618530273 C-8.75,31.399999618530273 -16.049999237060547,27.399999618530273 -16.049999237060547,27.399999618530273 C-16.049999237060547,27.399999618530273 8.850000381469727,-31.399999618530273 8.850000381469727,-31.399999618530273z"></path></g></g><g transform="matrix(1,0,0,1,130.135009765625,145.72999572753906)" opacity="1" style="display: block;"><g opacity="1" transform="matrix(1,0,0,1,0,0)"><path fill="rgb(17,1,56)" fill-opacity="1" d=" M23.600000381469727,-3.6500000953674316 C23.600000381469727,-3.6500000953674316 23.600000381469727,3.6500000953674316 23.600000381469727,3.6500000953674316 C23.600000381469727,3.6500000953674316 -23.600000381469727,3.6500000953674316 -23.600000381469727,3.6500000953674316 C-23.600000381469727,3.6500000953674316 -23.600000381469727,-3.6500000953674316 -23.600000381469727,-3.6500000953674316 C-23.600000381469727,-3.6500000953674316 23.600000381469727,-3.6500000953674316 23.600000381469727,-3.6500000953674316z"></path></g></g><g transform="matrix(0.9999698996543884,0.00775484461337328,-0.00775484461337328,0.9999698996543884,49.25386428833008,90.61193084716797)" opacity="1" style="display: block;"><g opacity="1" transform="matrix(1,0,0,1,0,0)"><path fill="rgb(17,1,56)" fill-opacity="1" d=" M-27.077999114990234,17.118000030517578 C-20.777999877929688,13.517999649047852 -19.67799949645996,9.517999649047852 -23.17799949645996,-3.681999921798706 C-26.67799949645996,-16.881999969482422 -17.47800064086914,-30.582000732421875 -8.678000450134277,-34.18199920654297 C-2.177999973297119,-36.88199996948242 3.421999931335449,-37.981998443603516 7.421999931335449,-44.88199996948242 C11.321999549865723,-51.78200149536133 3.921999931335449,-66.48200225830078 16.32200050354004,-77.38200378417969 C25.422000885009766,-85.28199768066406 38.422000885009766,-78.98200225830078 38.422000885009766,-78.98200225830078 C41.22200012207031,-80.48200225830078 42.422000885009766,-64.18199920654297 42.62200164794922,-51.88199996948242 C26.82200050354004,-27.781999588012695 31.32200050354004,3.818000078201294 37.12200164794922,30.81800079345703 C37.22200012207031,31.51799964904785 37.52199935913086,32.018001556396484 37.72200012207031,32.61800003051758 C36.52199935913086,53.518001556396484 35.52199935913086,70.81800079345703 35.52199935913086,70.81800079345703 C35.52199935913086,70.81800079345703 -2.378000020980835,92.31800079345703 -28.17799949645996,73.91799926757812 C-54.077999114990234,55.518001556396484 -39.678001403808594,24.31800079345703 -27.077999114990234,17.118000030517578z"></path></g></g><g transform="matrix(1,0,0,1,143.45700073242188,209.63999938964844)" opacity="1" style="display: block;"><g opacity="1" transform="matrix(1,0,0,1,0,0)"><path fill="rgb(248,133,103)" fill-opacity="1" d=" M-21.225000381469727,-55.75899887084961 C-21.225000381469727,-55.75899887084961 40.57500076293945,-51.45899963378906 46.375,-45.85900115966797 C52.17499923706055,-40.35900115966797 -0.32499998807907104,55.840999603271484 -0.32499998807907104,55.840999603271484 C-0.32499998807907104,55.840999603271484 -8.925000190734863,50.840999603271484 -8.925000190734863,50.840999603271484 C-8.925000190734863,50.840999603271484 4.074999809265137,5.140999794006348 7.474999904632568,-5.459000110626221 C10.875,-16.05900001525879 17.375,-28.759000778198242 16.174999237060547,-30.458999633789062 C14.975000381469727,-32.159000396728516 -47.32500076293945,-22.759000778198242 -46.82500076293945,-40.35900115966797 C-46.42499923706055,-57.85900115966797 -21.225000381469727,-55.75899887084961 -21.225000381469727,-55.75899887084961z"></path></g></g><g transform="matrix(0.9979478716850281,-0.06403130292892456,0.06403130292892456,0.9979478716850281,141.26080322265625,279.44488525390625)" opacity="1" style="display: block;"><g opacity="1" transform="matrix(1,0,0,1,0,0)"><path fill="rgb(17,1,56)" fill-opacity="1" d=" M-5.578999996185303,-19.339000701904297 C-5.578999996185303,-19.339000701904297 4.020999908447266,-13.83899974822998 4.020999908447266,-13.83899974822998 C4.020999908447266,-13.83899974822998 15.821000099182129,16.461000442504883 13.621000289916992,19.160999298095703 C11.420999526977539,21.76099967956543 -12.878999710083008,-4.939000129699707 -13.779000282287598,-8.939000129699707 C-14.779000282287598,-13.038999557495117 -8.378999710083008,-17.93899917602539 -5.578999996185303,-19.339000701904297z"></path></g></g><g transform="matrix(1,0,0,1,79.63500213623047,60.020999908447266)" opacity="1" style="display: block;"><g opacity="1" transform="matrix(1,0,0,1,0,0)"><path fill="rgb(248,133,103)" fill-opacity="1" d=" M12.100000381469727,-10.439000129699707 C12.100000381469727,-10.439000129699707 5.599999904632568,7.261000156402588 9.600000381469727,20.461000442504883 C9.600000381469727,20.461000442504883 -12.100000381469727,15.26099967956543 -12.100000381469727,15.26099967956543 C-12.100000381469727,15.26099967956543 -3.200000047683716,-14.33899974822998 0.5,-19.339000701904297 C4.400000095367432,-24.43899917602539 12.100000381469727,-10.439000129699707 12.100000381469727,-10.439000129699707z"></path></g></g><g transform="matrix(1,0,0,1,79.58499908447266,57.82400131225586)" opacity="1" style="display: block;"><g opacity="1" transform="matrix(1,0,0,1,0,0)"><path fill="rgb(228,89,63)" fill-opacity="1" d=" M3.1500000953674316,7.6539998054504395 C-3.950000047683716,7.6539998054504395 -7.650000095367432,12.854000091552734 -7.949999809265137,18.354000091552734 C-7.949999809265137,18.354000091552734 -12.050000190734863,17.354000091552734 -12.050000190734863,17.354000091552734 C-12.050000190734863,17.354000091552734 -3.1500000953674316,-12.246000289916992 0.550000011920929,-17.246000289916992 C4.349999904632568,-22.34600067138672 12.050000190734863,-8.246000289916992 12.050000190734863,-8.246000289916992 C12.050000190734863,-8.246000289916992 9.149999618530273,-0.2460000067949295 8.449999809265137,8.954000473022461 C7.050000190734863,8.154000282287598 5.25,7.6539998054504395 3.1500000953674316,7.6539998054504395z"></path></g></g><g transform="matrix(0.999936580657959,-0.011261801235377789,0.011261801235377789,0.999936580657959,90.24955749511719,44.31468200683594)" opacity="1" style="display: block;"><g opacity="1" transform="matrix(1,0,0,1,0,0)"><path fill="rgb(248,133,103)" fill-opacity="1" d=" M3.5950000286102295,-17.85700035095215 C3.5950000286102295,-17.85700035095215 11.994999885559082,-13.857000350952148 13.994999885559082,-10.456999778747559 C15.994999885559082,-7.057000160217285 14.295000076293945,-2.3570001125335693 14.395000457763672,0.7429999709129333 C14.595000267028809,3.8429999351501465 15.395000457763672,8.442999839782715 14.994999885559082,9.243000030517578 C14.494999885559082,10.043000221252441 11.395000457763672,9.243000030517578 10.895000457763672,9.942999839782715 C10.395000457763672,10.642999649047852 6.394999980926514,13.142999649047852 5.09499979019165,15.942999839782715 C3.7950000762939453,18.743000030517578 2.194999933242798,19.042999267578125 -0.8050000071525574,17.64299964904785 C-3.7049999237060547,16.243000030517578 -14.904999732971191,1.4429999589920044 -15.104999542236328,-5.557000160217285 C-15.104999542236328,-12.557000160217285 -4.804999828338623,-20.756999969482422 3.5950000286102295,-17.85700035095215z"></path></g></g><g transform="matrix(0.999936580657959,-0.011261801235377789,0.011261801235377789,0.999936580657959,78.48511505126953,34.84056854248047)" opacity="1" style="display: block;"><g opacity="1" transform="matrix(1,0,0,1,0,0)"><path fill="rgb(17,1,56)" fill-opacity="1" d=" M8.052000045776367,-17.652999877929688 C8.052000045776367,-17.652999877929688 11.95199966430664,-9.753000259399414 12.35200023651123,-6.6529998779296875 C12.751999855041504,-3.552999973297119 9.751999855041504,5.646999835968018 8.052000045776367,6.8470001220703125 C6.251999855041504,8.04699993133545 7.751999855041504,-3.453000068664551 3.3519999980926514,0.04699999839067459 C-1.1480000019073486,3.546999931335449 3.6519999504089355,10.246999740600586 3.3519999980926514,11.54699993133545 C3.052000045776367,12.946999549865723 1.0520000457763672,17.246999740600586 -3.5480000972747803,17.64699935913086 C-8.14799976348877,18.047000885009766 -15.748000144958496,-4.853000164031982 -10.748000144958496,-10.553000450134277 C-5.748000144958496,-16.253000259399414 2.8519999980926514,-17.652999877929688 8.052000045776367,-17.652999877929688z"></path></g></g><g transform="matrix(0.999936580657959,-0.011261801235377789,0.011261801235377789,0.999936580657959,99.84136962890625,23.288328170776367)" opacity="1" style="display: block;"><g opacity="1" transform="matrix(1,0,0,1,0,0)"><path fill="rgb(17,1,56)" fill-opacity="1" d=" M-14.13700008392334,-10.944999694824219 C-14.13700008392334,-10.944999694824219 -6.736999988555908,-16.545000076293945 0.9629999995231628,-10.244999885559082 C8.663000106811523,-4.045000076293945 8.36299991607666,5.355000019073486 14.762999534606934,4.554999828338623 C14.762999534606934,4.554999828338623 10.562999725341797,15.354999542236328 1.3630000352859497,12.854999542236328 C-7.836999893188477,10.154999732971191 -17.336999893188477,-4.445000171661377 -14.13700008392334,-10.944999694824219z"></path></g></g><g transform="matrix(1,0,0,1,110.5260009765625,161.11099243164062)" opacity="1" style="display: block;"><g opacity="1" transform="matrix(1,0,0,1,0,0)"><path fill="rgb(146,96,12)" fill-opacity="1" d=" M-49.59000015258789,-26.231000900268555 C-49.59000015258789,-26.231000900268555 -20.889999389648438,-28.430999755859375 -20.889999389648438,-28.430999755859375 C-20.889999389648438,-28.430999755859375 -5.989999771118164,-11.730999946594238 8.8100004196167,-11.730999946594238 C23.40999984741211,-11.730999946594238 59.209999084472656,-11.730999946594238 59.209999084472656,-11.730999946594238 C59.209999084472656,-11.730999946594238 56.5099983215332,11.269000053405762 44.310001373291016,27.868999481201172 C44.310001373291016,27.868999481201172 -3.5899999141693115,29.368999481201172 -26.889999389648438,27.4689998626709 C-50.290000915527344,25.569000244140625 -72.48999786376953,-0.13099999725818634 -49.59000015258789,-26.231000900268555z"></path></g></g><g transform="matrix(1,0,0,1,88.48500061035156,141.86099243164062)" opacity="1" style="display: block;"><g opacity="1" transform="matrix(1,0,0,1,0,0)"><path fill="rgb(19,67,124)" fill-opacity="1" d=" M-30.25,-3.5810000896453857 C-29.450000762939453,-4.681000232696533 -28.549999237060547,-5.781000137329102 -27.549999237060547,-6.980999946594238 C-27.549999237060547,-6.980999946594238 1.149999976158142,-9.180999755859375 1.149999976158142,-9.180999755859375 C1.149999976158142,-9.180999755859375 15.649999618530273,7.019000053405762 30.25,7.419000148773193 C12.649999618530273,9.319000244140625 -20.950000762939453,13.119000434875488 -30.25,-3.5810000896453857z"></path></g></g><g transform="matrix(1,0,0,1,150.53500366210938,151.11500549316406)" opacity="1" style="display: block;"><g opacity="1" transform="matrix(1,0,0,1,0,0)"><path fill="rgb(19,67,124)" fill-opacity="1" d=" M5.800000190734863,1.6649999618530273 C-1.5,0.9649999737739563 -8.600000381469727,-0.8349999785423279 -15.800000190734863,-1.7350000143051147 C-15.800000190734863,-1.7350000143051147 15.800000190734863,-1.7350000143051147 15.800000190734863,-1.7350000143051147 C12.699999809265137,-0.13500000536441803 11.199999809265137,2.1649999618530273 5.800000190734863,1.6649999618530273z"></path></g></g><g transform="matrix(1,0,0,1,80.21700286865234,101.16300201416016)" opacity="1" style="display: block;"><g opacity="1" transform="matrix(1,0,0,1,0,0)"><path fill="rgb(0,186,209)" fill-opacity="1" d=" M-9.880000114440918,-35.882999420166016 C-9.880000114440918,-35.882999420166016 3.319999933242798,-30.683000564575195 7.71999979019165,-30.183000564575195 C7.71999979019165,-30.183000564575195 17.020000457763672,-9.782999992370605 20.6200008392334,-4.183000087738037 C24.219999313354492,1.3170000314712524 11.520000457763672,22.517000198364258 10.720000267028809,31.617000579833984 C10.720000267028809,31.617000579833984 3.0199999809265137,38.91699981689453 -20.18000030517578,34.41699981689453 C-20.18000030517578,34.41699981689453 -26.18000030517578,-23.08300018310547 -9.880000114440918,-35.882999420166016z"></path></g></g><g transform="matrix(1,0,0,1,74.38800048828125,106.91799926757812)" opacity="0.65" style="display: block;"><g opacity="1" transform="matrix(1,0,0,1,0,0)"><path fill="rgb(0,161,204)" fill-opacity="1" d=" M-7.547999858856201,-29.434999465942383 C-3.5480000972747803,-31.235000610351562 3.4519999027252197,-29.434999465942383 5.452000141143799,-25.334999084472656 C7.8520002365112305,-20.334999084472656 5.3520002365112305,-11.4350004196167 5.6519999504089355,-6.034999847412109 C5.952000141143799,-0.33500000834465027 6.3520002365112305,7.164999961853027 7.751999855041504,12.765000343322754 C8.85200023651123,17.065000534057617 11.652000427246094,22.46500015258789 15.35200023651123,26.764999389648438 C12.35200023651123,28.565000534057617 3.752000093460083,32.165000915527344 -14.248000144958496,28.665000915527344 C-14.248000144958496,28.665000915527344 -17.947999954223633,-6.335000038146973 -11.748000144958496,-27.834999084472656 C-10.14799976348877,-28.434999465942383 -8.64799976348877,-28.934999465942383 -7.547999858856201,-29.434999465942383z"></path></g></g><g transform="matrix(0.9991604685783386,-0.0409681499004364,0.0409681499004364,0.9991604685783386,129.41159057617188,136.29779052734375)" opacity="1" style="display: block;"><g opacity="1" transform="matrix(1,0,0,1,0,0)"><path fill="rgb(248,133,103)" fill-opacity="1" d=" M-9.251999855041504,-1.4759999513626099 C-6.952000141143799,-2.0759999752044678 -5.052000045776367,-2.875999927520752 -2.8519999980926514,-4.076000213623047 C-1.1519999504089355,-4.97599983215332 0.5479999780654907,-5.875999927520752 2.5480000972747803,-5.576000213623047 C4.047999858856201,-5.375999927520752 15.748000144958496,-0.47600001096725464 12.64799976348877,1.7239999771118164 C11.64799976348877,2.4240000247955322 9.04800033569336,1.2239999771118164 8.04800033569336,0.8240000009536743 C6.6479997634887695,0.3240000009536743 5.1479997634887695,-0.37599998712539673 3.747999906539917,-0.9760000109672546 C5.047999858856201,-1.0759999752044678 11.347999572753906,1.6239999532699585 10.748000144958496,3.124000072479248 C9.54800033569336,5.723999977111816 3.1480000019073486,2.2239999771118164 1.6480000019073486,1.4240000247955322 C2.747999906539917,1.6239999532699585 6.748000144958496,3.124000072479248 6.748000144958496,4.52400016784668 C6.748000144958496,6.823999881744385 1.9479999542236328,4.923999786376953 0.9480000138282776,4.423999786376953 C0.14800000190734863,4.02400016784668 -0.35199999809265137,3.5239999294281006 -1.2519999742507935,3.3239998817443848 C-2.252000093460083,3.2239999771118164 -3.252000093460083,3.624000072479248 -4.1519999504089355,3.8239998817443848 C-5.751999855041504,4.124000072479248 -7.552000045776367,4.124000072479248 -9.152000427246094,3.9240000247955322 C-10.152000427246094,3.8239998817443848 -12.45199966430664,4.02400016784668 -12.95199966430664,3.2239999771118164 C-13.45199966430664,2.3239998817443848 -13.052000045776367,0.3240000009536743 -12.35200023651123,-0.37599998712539673 C-11.35200023651123,-1.0759999752044678 -10.251999855041504,-1.1759999990463257 -9.251999855041504,-1.4759999513626099z"></path></g></g><g transform="matrix(0.9991604685783386,-0.0409681499004364,0.0409681499004364,0.9991604685783386,87.83470153808594,107.9593276977539)" opacity="1" style="display: block;"><g opacity="1" transform="matrix(1,0,0,1,0,0)"><path fill="rgb(0,186,209)" fill-opacity="1" d=" M33.137001037597656,28.238000869750977 C33.137001037597656,28.238000869750977 30.636999130249023,37.737998962402344 30.636999130249023,37.737998962402344 C30.636999130249023,37.737998962402344 -31.46299934387207,30.538000106811523 -32.862998962402344,19.538000106811523 C-34.26300048828125,8.538000106811523 -30.363000869750977,-42.6619987487793 -15.36299991607666,-37.36199951171875 C-0.3630000054836273,-32.0620002746582 -15.163000106811523,5.138000011444092 -12.86299991607666,8.038000106811523 C-10.463000297546387,10.838000297546387 33.137001037597656,28.238000869750977 33.137001037597656,28.238000869750977z"></path></g></g></g><g transform="matrix(1,0,0,1,710.760986328125,333.32598876953125)" opacity="1" style="display: block;"><g opacity="1" transform="matrix(1,0,0,1,0,0)"><path fill="rgb(1,198,226)" fill-opacity="1" d=" M46.43899917602539,35.54999923706055 C46.43899917602539,35.54999923706055 -52.96099853515625,35.54999923706055 -52.96099853515625,35.54999923706055 C-71.56099700927734,35.54999923706055 -84.76100158691406,19.850000381469727 -78.96099853515625,4.650000095367432 C-78.86100006103516,4.349999904632568 -78.76100158691406,4.150000095367432 -78.66100311279297,3.8499999046325684 C-69.26100158691406,-16.75 -41.6609992980957,-11.350000381469727 -34.361000061035156,-1.75 C-34.361000061035156,-1.75 -53.06100082397461,-35.54999923706055 -13.16100025177002,-35.54999923706055 C20.339000701904297,-35.54999923706055 9.939000129699707,-2.6500000953674316 9.939000129699707,-2.6500000953674316 C9.939000129699707,-2.6500000953674316 16.23900032043457,-28.049999237060547 35.8390007019043,-26.049999237060547 C67.63899993896484,-22.950000762939453 48.73899841308594,8.75 48.73899841308594,8.75 C48.73899841308594,8.75 80.63899993896484,1.5499999523162842 80.33899688720703,18.75 C80.03900146484375,35.849998474121094 46.43899917602539,35.54999923706055 46.43899917602539,35.54999923706055z"></path></g></g><g transform="matrix(1,0,0,1,330.5690002441406,449.4463195800781)" opacity="1" style="display: block;"><g opacity="1" transform="matrix(1,0,0,1,0,0)"><path fill="rgb(1,198,226)" fill-opacity="1" d=" M64.53500366210938,49.5 C64.53500366210938,49.5 -73.76499938964844,49.5 -73.76499938964844,49.5 C-99.56500244140625,49.5 -118.06500244140625,27.700000762939453 -109.86499786376953,6.5 C-109.76499938964844,6.199999809265137 -109.56500244140625,5.800000190734863 -109.46499633789062,5.400000095367432 C-96.46499633789062,-23.200000762939453 -57.96500015258789,-15.699999809265137 -47.76499938964844,-2.4000000953674316 C-47.76499938964844,-2.4000000953674316 -73.76499938964844,-49.5 -18.264999389648438,-49.5 C28.334999084472656,-49.5 13.9350004196167,-3.700000047683716 13.9350004196167,-3.700000047683716 C13.9350004196167,-3.700000047683716 22.735000610351562,-39 50.03499984741211,-36.29999923706055 C94.33499908447266,-32 67.93499755859375,12.100000381469727 67.93499755859375,12.100000381469727 C67.93499755859375,12.100000381469727 112.33499908447266,2.0999999046325684 111.83499908447266,26 C111.43499755859375,49.900001525878906 64.53500366210938,49.5 64.53500366210938,49.5z"></path></g></g><g transform="matrix(1,0,0,1,107.35700225830078,356.3092346191406)" opacity="1" style="display: block;"><g opacity="1" transform="matrix(1,0,0,1,0,0)"><path fill="rgb(1,198,226)" fill-opacity="1" d=" M31.746000289916992,24.350000381469727 C31.746000289916992,24.350000381469727 -36.45399856567383,24.350000381469727 -36.45399856567383,24.350000381469727 C-49.15399932861328,24.350000381469727 -58.354000091552734,13.550000190734863 -54.25400161743164,3.1500000953674316 C-54.15399932861328,2.950000047683716 -54.15399932861328,2.8499999046325684 -54.05400085449219,2.6500000953674316 C-47.65399932861328,-11.449999809265137 -28.65399932861328,-7.75 -23.65399932861328,-1.149999976158142 C-23.65399932861328,-1.149999976158142 -36.45399856567383,-24.350000381469727 -9.053999900817871,-24.350000381469727 C13.946000099182129,-24.350000381469727 6.8460001945495605,-1.75 6.8460001945495605,-1.75 C6.8460001945495605,-1.75 11.145999908447266,-19.149999618530273 24.645999908447266,-17.850000381469727 C46.44599914550781,-15.75 33.54600143432617,6.050000190734863 33.54600143432617,6.050000190734863 C33.54600143432617,6.050000190734863 55.44599914550781,1.149999976158142 55.24599838256836,12.949999809265137 C54.74599838256836,24.450000762939453 31.746000289916992,24.350000381469727 31.746000289916992,24.350000381469727z"></path></g></g><g transform="matrix(-0.2222593128681183,-0.9749875664710999,0.9749875664710999,-0.2222593128681183,130.1741943359375,188.05917358398438)" opacity="1" style="display: block;"><g opacity="1" transform="matrix(1,0,0,1,0,0)"><path fill="rgb(207,209,221)" fill-opacity="1" d=" M0.10000000149011612,27.799999237060547 C-15.300000190734863,27.799999237060547 -27.700000762939453,15.399999618530273 -27.700000762939453,0 C-27.700000762939453,-15.399999618530273 -15.300000190734863,-27.799999237060547 0.10000000149011612,-27.799999237060547 C15.5,-27.799999237060547 27.899999618530273,-15.399999618530273 27.899999618530273,0 C27.899999618530273,15.399999618530273 15.399999618530273,27.799999237060547 0.10000000149011612,27.799999237060547z M52.70000076293945,7 C53,4.699999809265137 53.20000076293945,2.4000000953674316 53.20000076293945,0 C53.20000076293945,-2.4000000953674316 53,-4.699999809265137 52.70000076293945,-7 C52.70000076293945,-7 42,-8.699999809265137 42,-8.699999809265137 C41.70000076293945,-10.300000190734863 41.20000076293945,-11.899999618530273 40.70000076293945,-13.5 C40.70000076293945,-13.5 49.20000076293945,-20.399999618530273 49.20000076293945,-20.399999618530273 C47.400001525878906,-24.700000762939453 45,-28.799999237060547 42.20000076293945,-32.400001525878906 C42.20000076293945,-32.400001525878906 32,-28.5 32,-28.5 C30.899999618530273,-29.700000762939453 29.700000762939453,-30.899999618530273 28.5,-32 C28.5,-32 32.400001525878906,-42.20000076293945 32.400001525878906,-42.20000076293945 C28.700000762939453,-45 24.700000762939453,-47.400001525878906 20.399999618530273,-49.20000076293945 C20.399999618530273,-49.20000076293945 13.5,-40.70000076293945 13.5,-40.70000076293945 C11.899999618530273,-41.20000076293945 10.300000190734863,-41.70000076293945 8.699999809265137,-42 C8.699999809265137,-42 7,-52.70000076293945 7,-52.70000076293945 C4.699999809265137,-53 2.4000000953674316,-53.20000076293945 0,-53.20000076293945 C-2.4000000953674316,-53.20000076293945 -4.699999809265137,-53 -7,-52.70000076293945 C-7,-52.70000076293945 -8.699999809265137,-42 -8.699999809265137,-42 C-10.300000190734863,-41.70000076293945 -11.899999618530273,-41.20000076293945 -13.5,-40.70000076293945 C-13.5,-40.70000076293945 -20.399999618530273,-49.20000076293945 -20.399999618530273,-49.20000076293945 C-24.700000762939453,-47.400001525878906 -28.799999237060547,-45 -32.400001525878906,-42.20000076293945 C-32.400001525878906,-42.20000076293945 -28.5,-32 -28.5,-32 C-29.700000762939453,-30.899999618530273 -30.899999618530273,-29.700000762939453 -32,-28.5 C-32,-28.5 -42.20000076293945,-32.400001525878906 -42.20000076293945,-32.400001525878906 C-45,-28.700000762939453 -47.400001525878906,-24.700000762939453 -49.20000076293945,-20.399999618530273 C-49.20000076293945,-20.399999618530273 -40.70000076293945,-13.5 -40.70000076293945,-13.5 C-41.20000076293945,-11.899999618530273 -41.70000076293945,-10.300000190734863 -42,-8.699999809265137 C-42,-8.699999809265137 -52.70000076293945,-7 -52.70000076293945,-7 C-53,-4.699999809265137 -53.20000076293945,-2.4000000953674316 -53.20000076293945,0 C-53.20000076293945,2.4000000953674316 -53,4.699999809265137 -52.70000076293945,7 C-52.70000076293945,7 -42,8.699999809265137 -42,8.699999809265137 C-41.70000076293945,10.300000190734863 -41.20000076293945,11.899999618530273 -40.70000076293945,13.5 C-40.70000076293945,13.5 -49.20000076293945,20.399999618530273 -49.20000076293945,20.399999618530273 C-47.400001525878906,24.700000762939453 -45,28.799999237060547 -42.20000076293945,32.400001525878906 C-42.20000076293945,32.400001525878906 -32,28.5 -32,28.5 C-30.899999618530273,29.700000762939453 -29.700000762939453,30.899999618530273 -28.5,32 C-28.5,32 -32.400001525878906,42.20000076293945 -32.400001525878906,42.20000076293945 C-28.700000762939453,45 -24.700000762939453,47.400001525878906 -20.399999618530273,49.20000076293945 C-20.399999618530273,49.20000076293945 -13.5,40.70000076293945 -13.5,40.70000076293945 C-11.899999618530273,41.20000076293945 -10.300000190734863,41.70000076293945 -8.699999809265137,42 C-8.699999809265137,42 -7,52.70000076293945 -7,52.70000076293945 C-4.699999809265137,53 -2.4000000953674316,53.20000076293945 0,53.20000076293945 C2.4000000953674316,53.20000076293945 4.699999809265137,53 7,52.70000076293945 C7,52.70000076293945 8.699999809265137,42 8.699999809265137,42 C10.300000190734863,41.70000076293945 11.899999618530273,41.20000076293945 13.5,40.70000076293945 C13.5,40.70000076293945 20.399999618530273,49.20000076293945 20.399999618530273,49.20000076293945 C24.700000762939453,47.400001525878906 28.799999237060547,45 32.400001525878906,42.20000076293945 C32.400001525878906,42.20000076293945 28.5,32 28.5,32 C29.700000762939453,30.899999618530273 30.899999618530273,29.700000762939453 32,28.5 C32,28.5 42.20000076293945,32.400001525878906 42.20000076293945,32.400001525878906 C45,28.700000762939453 47.400001525878906,24.700000762939453 49.20000076293945,20.399999618530273 C49.20000076293945,20.399999618530273 40.70000076293945,13.5 40.70000076293945,13.5 C41.20000076293945,11.899999618530273 41.70000076293945,10.300000190734863 42,8.699999809265137 C42,8.699999809265137 52.70000076293945,7 52.70000076293945,7z"></path></g></g><g transform="matrix(-0.2222593128681183,-0.9749875664710999,0.9749875664710999,-0.2222593128681183,130.24945068359375,187.939453125)" opacity="1" style="display: block;"><g opacity="1" transform="matrix(1,0,0,1,0,0)"><path fill="rgb(17,1,56)" fill-opacity="1" d=" M0,19.399999618530273 C-10.699999809265137,19.399999618530273 -19.399999618530273,10.699999809265137 -19.399999618530273,0 C-19.399999618530273,-10.699999809265137 -10.699999809265137,-19.399999618530273 0,-19.399999618530273 C10.699999809265137,-19.399999618530273 19.399999618530273,-10.699999809265137 19.399999618530273,0 C19.399999618530273,10.699999809265137 10.699999809265137,19.399999618530273 0,19.399999618530273z M0,-31.299999237060547 C-17.299999237060547,-31.299999237060547 -31.299999237060547,-17.299999237060547 -31.299999237060547,0 C-31.299999237060547,17.299999237060547 -17.299999237060547,31.299999237060547 0,31.299999237060547 C17.299999237060547,31.299999237060547 31.299999237060547,17.299999237060547 31.299999237060547,0 C31.200000762939453,-17.299999237060547 17.200000762939453,-31.299999237060547 0,-31.299999237060547z"></path></g></g><g transform="matrix(0.6235947012901306,-0.7817478179931641,0.7817478179931641,0.6235947012901306,593.30810546875,440.8553466796875)" opacity="1" style="display: block;"><g opacity="1" transform="matrix(1,0,0,1,0,0)"><path fill="rgb(1,198,226)" fill-opacity="1" d=" M-10.545000076293945,29.2549991607666 C-26.645000457763672,23.454999923706055 -35.04499816894531,5.755000114440918 -29.344999313354492,-10.444999694824219 C-23.545000076293945,-26.545000076293945 -5.84499979019165,-34.94499969482422 10.354999542236328,-29.2450008392334 C26.454999923706055,-23.44499969482422 34.85499954223633,-5.744999885559082 29.155000686645508,10.454999923706055 C23.354999542236328,26.655000686645508 5.554999828338623,35.05500030517578 -10.545000076293945,29.2549991607666z M52.54999923706055,27.149999618530273 C53.75,24.850000381469727 54.849998474121094,22.549999237060547 55.75,20.049999237060547 C56.650001525878906,17.549999237060547 57.25,15.050000190734863 57.849998474121094,12.550000190734863 C57.849998474121094,12.550000190734863 47.25,6.75 47.25,6.75 C47.54999923706055,4.949999809265137 47.650001525878906,3.049999952316284 47.650001525878906,1.25 C47.650001525878906,1.25 59.150001525878906,-2.75 59.150001525878906,-2.75 C58.849998474121094,-7.949999809265137 57.95000076293945,-13.149999618530273 56.349998474121094,-18.049999237060547 C56.349998474121094,-18.049999237060547 44.150001525878906,-17.75 44.150001525878906,-17.75 C43.45000076293945,-19.450000762939453 42.650001525878906,-21.149999618530273 41.75,-22.75 C41.75,-22.75 49.75,-31.950000762939453 49.75,-31.950000762939453 C46.95000076293945,-36.25 43.650001525878906,-40.349998474121094 39.75,-43.849998474121094 C39.75,-43.849998474121094 29.350000381469727,-37.45000076293945 29.350000381469727,-37.45000076293945 C27.950000762939453,-38.54999923706055 26.350000381469727,-39.650001525878906 24.850000381469727,-40.650001525878906 C24.850000381469727,-40.650001525878906 27.149999618530273,-52.54999923706055 27.149999618530273,-52.54999923706055 C24.850000381469727,-53.75 22.549999237060547,-54.849998474121094 20.049999237060547,-55.75 C17.549999237060547,-56.650001525878906 15.050000190734863,-57.25 12.550000190734863,-57.849998474121094 C12.550000190734863,-57.849998474121094 6.75,-47.25 6.75,-47.25 C4.849999904632568,-47.54999923706055 3.049999952316284,-47.650001525878906 1.25,-47.650001525878906 C1.25,-47.650001525878906 -2.75,-59.150001525878906 -2.75,-59.150001525878906 C-7.949999809265137,-58.849998474121094 -13.149999618530273,-57.95000076293945 -18.049999237060547,-56.349998474121094 C-18.049999237060547,-56.349998474121094 -17.75,-44.150001525878906 -17.75,-44.150001525878906 C-19.450000762939453,-43.45000076293945 -21.149999618530273,-42.650001525878906 -22.75,-41.75 C-22.75,-41.75 -31.950000762939453,-49.75 -31.950000762939453,-49.75 C-36.25,-46.95000076293945 -40.349998474121094,-43.650001525878906 -43.849998474121094,-39.75 C-43.849998474121094,-39.75 -37.45000076293945,-29.350000381469727 -37.45000076293945,-29.350000381469727 C-38.54999923706055,-27.850000381469727 -39.650001525878906,-26.350000381469727 -40.650001525878906,-24.850000381469727 C-40.650001525878906,-24.850000381469727 -52.54999923706055,-27.149999618530273 -52.54999923706055,-27.149999618530273 C-53.75,-24.850000381469727 -54.849998474121094,-22.549999237060547 -55.75,-20.049999237060547 C-56.650001525878906,-17.549999237060547 -57.25,-15.050000190734863 -57.849998474121094,-12.550000190734863 C-57.849998474121094,-12.550000190734863 -47.25,-6.75 -47.25,-6.75 C-47.54999923706055,-4.849999904632568 -47.650001525878906,-3.049999952316284 -47.650001525878906,-1.25 C-47.650001525878906,-1.25 -59.150001525878906,2.75 -59.150001525878906,2.75 C-58.849998474121094,7.949999809265137 -57.95000076293945,13.149999618530273 -56.349998474121094,18.049999237060547 C-56.349998474121094,18.049999237060547 -44.150001525878906,17.75 -44.150001525878906,17.75 C-43.45000076293945,19.450000762939453 -42.650001525878906,21.149999618530273 -41.75,22.75 C-41.75,22.75 -49.75,31.950000762939453 -49.75,31.950000762939453 C-46.95000076293945,36.25 -43.650001525878906,40.349998474121094 -39.75,43.849998474121094 C-39.75,43.849998474121094 -29.350000381469727,37.45000076293945 -29.350000381469727,37.45000076293945 C-27.950000762939453,38.54999923706055 -26.350000381469727,39.650001525878906 -24.850000381469727,40.650001525878906 C-24.850000381469727,40.650001525878906 -27.149999618530273,52.54999923706055 -27.149999618530273,52.54999923706055 C-24.850000381469727,53.75 -22.549999237060547,54.849998474121094 -20.049999237060547,55.75 C-17.549999237060547,56.650001525878906 -15.050000190734863,57.25 -12.550000190734863,57.849998474121094 C-12.550000190734863,57.849998474121094 -6.75,47.25 -6.75,47.25 C-4.849999904632568,47.54999923706055 -3.049999952316284,47.650001525878906 -1.25,47.650001525878906 C-1.25,47.650001525878906 2.75,59.150001525878906 2.75,59.150001525878906 C7.949999809265137,58.849998474121094 13.149999618530273,57.95000076293945 18.049999237060547,56.349998474121094 C18.049999237060547,56.349998474121094 17.75,44.150001525878906 17.75,44.150001525878906 C19.450000762939453,43.45000076293945 21.149999618530273,42.650001525878906 22.75,41.75 C22.75,41.75 31.950000762939453,49.75 31.950000762939453,49.75 C36.25,46.95000076293945 40.349998474121094,43.650001525878906 43.849998474121094,39.75 C43.849998474121094,39.75 37.45000076293945,29.350000381469727 37.45000076293945,29.350000381469727 C38.54999923706055,27.850000381469727 39.650001525878906,26.350000381469727 40.650001525878906,24.850000381469727 C40.650001525878906,24.850000381469727 52.54999923706055,27.149999618530273 52.54999923706055,27.149999618530273z"></path></g></g><g transform="matrix(0.6235947012901306,-0.7817478179931641,0.7817478179931641,0.6235947012901306,593.2457275390625,440.93353271484375)" opacity="1" style="display: block;"><g opacity="1" transform="matrix(1,0,0,1,0,0)"><path fill="rgb(17,1,56)" fill-opacity="1" d=" M-7.353000164031982,20.44700050354004 C-18.652999877929688,16.44700050354004 -24.55299949645996,3.947000026702881 -20.452999114990234,-7.252999782562256 C-16.35300064086914,-18.452999114990234 -3.953000068664551,-24.452999114990234 7.247000217437744,-20.35300064086914 C18.547000885009766,-16.35300064086914 24.44700050354004,-3.8529999256134033 20.347000122070312,7.3470001220703125 C16.246999740600586,18.547000885009766 3.947000026702881,24.547000885009766 -7.353000164031982,20.44700050354004z M11.751999855041504,-32.847999572753906 C-6.3480000495910645,-39.347999572753906 -26.347999572753906,-29.947999954223633 -32.847999572753906,-11.748000144958496 C-39.347999572753906,6.3520002365112305 -29.947999954223633,26.351999282836914 -11.748000144958496,32.85200119018555 C6.3520002365112305,39.35200119018555 26.351999282836914,29.95199966430664 32.85200119018555,11.751999855041504 C39.35200119018555,-6.3480000495910645 29.95199966430664,-26.347999572753906 11.751999855041504,-32.847999572753906z"></path></g></g><g clip-path="url(#__lottie_element_1138)" transform="matrix(1,0,0,1,5.5,176)" opacity="1" style="display: block;"><g transform="matrix(1,0,0,1,62.45000076293945,4.650000095367432)" opacity="1" style="display: block;"><g opacity="1" transform="matrix(1,0,0,1,0,0)"><path fill="rgb(17,1,56)" fill-opacity="1" d=" M3.8499999046325684,-2.25 C3.8499999046325684,-2.25 3.8499999046325684,2.25 3.8499999046325684,2.25 C3.8499999046325684,2.25 -3.8499999046325684,2.25 -3.8499999046325684,2.25 C-3.8499999046325684,2.25 -3.8499999046325684,-2.25 -3.8499999046325684,-2.25 C-3.8499999046325684,-2.25 3.8499999046325684,-2.25 3.8499999046325684,-2.25z"></path></g></g><g transform="matrix(1,0,0,1,33.45000076293945,4.650000095367432)" opacity="1" style="display: block;"><g opacity="1" transform="matrix(1,0,0,1,0,0)"><path fill="rgb(17,1,56)" fill-opacity="1" d=" M-10.850000381469727,2.25 C-10.850000381469727,2.25 -17.950000762939453,2.25 -17.950000762939453,2.25 C-17.950000762939453,2.25 -17.950000762939453,-2.25 -17.950000762939453,-2.25 C-17.950000762939453,-2.25 -10.75,-2.25 -10.75,-2.25 C-10.75,-2.25 -10.75,2.25 -10.75,2.25 C-10.75,2.25 -10.850000381469727,2.25 -10.850000381469727,2.25z M3.549999952316284,2.25 C3.549999952316284,2.25 -3.6500000953674316,2.25 -3.6500000953674316,2.25 C-3.6500000953674316,2.25 -3.6500000953674316,-2.25 -3.6500000953674316,-2.25 C-3.6500000953674316,-2.25 3.549999952316284,-2.25 3.549999952316284,-2.25 C3.549999952316284,-2.25 3.549999952316284,2.25 3.549999952316284,2.25z M17.950000762939453,2.25 C17.950000762939453,2.25 10.75,2.25 10.75,2.25 C10.75,2.25 10.75,-2.25 10.75,-2.25 C10.75,-2.25 17.950000762939453,-2.25 17.950000762939453,-2.25 C17.950000762939453,-2.25 17.950000762939453,2.25 17.950000762939453,2.25z"></path></g></g><g transform="matrix(1,0,0,1,5.550000190734863,5.150000095367432)" opacity="1" style="display: block;"><g opacity="1" transform="matrix(1,0,0,1,0,0)"><path fill="rgb(17,1,56)" fill-opacity="1" d=" M1.75,2.75 C1.75,2.75 -2.75,2.75 -2.75,2.75 C-2.75,2.75 -2.75,-2.75 -2.75,-2.75 C-2.75,-2.75 2.75,-2.75 2.75,-2.75 C2.75,-2.75 2.75,1.75 2.75,1.75 C2.75,1.75 1.75,1.75 1.75,1.75 C1.75,1.75 1.75,2.75 1.75,2.75z"></path></g></g><g transform="matrix(1,0,0,1,5.050000190734863,67.80000305175781)" opacity="1" style="display: block;"><g opacity="1" transform="matrix(1,0,0,1,0,0)"><path fill="rgb(17,1,56)" fill-opacity="1" d=" M2.25,-47.29999923706055 C2.25,-47.29999923706055 -2.25,-47.29999923706055 -2.25,-47.29999923706055 C-2.25,-47.29999923706055 -2.25,-53.599998474121094 -2.25,-53.599998474121094 C-2.25,-53.599998474121094 2.25,-53.599998474121094 2.25,-53.599998474121094 C2.25,-53.599998474121094 2.25,-47.29999923706055 2.25,-47.29999923706055z M2.25,-34.70000076293945 C2.25,-34.70000076293945 -2.25,-34.70000076293945 -2.25,-34.70000076293945 C-2.25,-34.70000076293945 -2.25,-41 -2.25,-41 C-2.25,-41 2.25,-41 2.25,-41 C2.25,-41 2.25,-34.70000076293945 2.25,-34.70000076293945z M2.25,-22.100000381469727 C2.25,-22.100000381469727 -2.25,-22.100000381469727 -2.25,-22.100000381469727 C-2.25,-22.100000381469727 -2.25,-28.399999618530273 -2.25,-28.399999618530273 C-2.25,-28.399999618530273 2.25,-28.399999618530273 2.25,-28.399999618530273 C2.25,-28.399999618530273 2.25,-22.100000381469727 2.25,-22.100000381469727z M2.25,-9.399999618530273 C2.25,-9.399999618530273 -2.25,-9.399999618530273 -2.25,-9.399999618530273 C-2.25,-9.399999618530273 -2.25,-15.800000190734863 -2.25,-15.800000190734863 C-2.25,-15.800000190734863 2.25,-15.800000190734863 2.25,-15.800000190734863 C2.25,-15.800000190734863 2.25,-9.399999618530273 2.25,-9.399999618530273z M2.25,3.200000047683716 C2.25,3.200000047683716 -2.25,3.200000047683716 -2.25,3.200000047683716 C-2.25,3.200000047683716 -2.25,-3.0999999046325684 -2.25,-3.0999999046325684 C-2.25,-3.0999999046325684 2.25,-3.0999999046325684 2.25,-3.0999999046325684 C2.25,-3.0999999046325684 2.25,3.200000047683716 2.25,3.200000047683716z M2.25,15.800000190734863 C2.25,15.800000190734863 -2.25,15.800000190734863 -2.25,15.800000190734863 C-2.25,15.800000190734863 -2.25,9.5 -2.25,9.5 C-2.25,9.5 2.25,9.5 2.25,9.5 C2.25,9.5 2.25,15.800000190734863 2.25,15.800000190734863z M2.25,28.399999618530273 C2.25,28.399999618530273 -2.25,28.399999618530273 -2.25,28.399999618530273 C-2.25,28.399999618530273 -2.25,22.100000381469727 -2.25,22.100000381469727 C-2.25,22.100000381469727 2.25,22.100000381469727 2.25,22.100000381469727 C2.25,22.100000381469727 2.25,28.399999618530273 2.25,28.399999618530273z M2.25,41 C2.25,41 -2.25,41 -2.25,41 C-2.25,41 -2.25,34.70000076293945 -2.25,34.70000076293945 C-2.25,34.70000076293945 2.25,34.70000076293945 2.25,34.70000076293945 C2.25,34.70000076293945 2.25,41 2.25,41z M2.25,53.599998474121094 C2.25,53.599998474121094 -2.25,53.599998474121094 -2.25,53.599998474121094 C-2.25,53.599998474121094 -2.25,47.29999923706055 -2.25,47.29999923706055 C-2.25,47.29999923706055 2.25,47.29999923706055 2.25,47.29999923706055 C2.25,47.29999923706055 2.25,53.599998474121094 2.25,53.599998474121094z"></path></g></g><g transform="matrix(1,0,0,1,5.550000190734863,130.4499969482422)" opacity="1" style="display: block;"><g opacity="1" transform="matrix(1,0,0,1,0,0)"><path fill="rgb(17,1,56)" fill-opacity="1" d=" M2.75,2.75 C2.75,2.75 -2.75,2.75 -2.75,2.75 C-2.75,2.75 -2.75,-2.75 -2.75,-2.75 C-2.75,-2.75 1.75,-2.75 1.75,-2.75 C1.75,-2.75 1.75,-1.75 1.75,-1.75 C1.75,-1.75 2.75,-1.75 2.75,-1.75 C2.75,-1.75 2.75,2.75 2.75,2.75z"></path></g></g><g transform="matrix(1,0,0,1,62.04999923706055,130.9499969482422)" opacity="1" style="display: block;"><g opacity="1" transform="matrix(1,0,0,1,0,0)"><path fill="rgb(17,1,56)" fill-opacity="1" d=" M-41.150001525878906,2.25 C-41.150001525878906,2.25 -47.45000076293945,2.25 -47.45000076293945,2.25 C-47.45000076293945,2.25 -47.45000076293945,-2.25 -47.45000076293945,-2.25 C-47.45000076293945,-2.25 -41.150001525878906,-2.25 -41.150001525878906,-2.25 C-41.150001525878906,-2.25 -41.150001525878906,2.25 -41.150001525878906,2.25z M-28.450000762939453,2.25 C-28.450000762939453,2.25 -34.75,2.25 -34.75,2.25 C-34.75,2.25 -34.75,-2.25 -34.75,-2.25 C-34.75,-2.25 -28.450000762939453,-2.25 -28.450000762939453,-2.25 C-28.450000762939453,-2.25 -28.450000762939453,2.25 -28.450000762939453,2.25z M-15.850000381469727,2.25 C-15.850000381469727,2.25 -22.149999618530273,2.25 -22.149999618530273,2.25 C-22.149999618530273,2.25 -22.149999618530273,-2.25 -22.149999618530273,-2.25 C-22.149999618530273,-2.25 -15.850000381469727,-2.25 -15.850000381469727,-2.25 C-15.850000381469727,-2.25 -15.850000381469727,2.25 -15.850000381469727,2.25z M-3.1500000953674316,2.25 C-3.1500000953674316,2.25 -9.449999809265137,2.25 -9.449999809265137,2.25 C-9.449999809265137,2.25 -9.449999809265137,-2.25 -9.449999809265137,-2.25 C-9.449999809265137,-2.25 -3.1500000953674316,-2.25 -3.1500000953674316,-2.25 C-3.1500000953674316,-2.25 -3.1500000953674316,2.25 -3.1500000953674316,2.25z M9.449999809265137,2.25 C9.449999809265137,2.25 3.1500000953674316,2.25 3.1500000953674316,2.25 C3.1500000953674316,2.25 3.1500000953674316,-2.25 3.1500000953674316,-2.25 C3.1500000953674316,-2.25 9.449999809265137,-2.25 9.449999809265137,-2.25 C9.449999809265137,-2.25 9.449999809265137,2.25 9.449999809265137,2.25z M22.149999618530273,2.25 C22.149999618530273,2.25 15.850000381469727,2.25 15.850000381469727,2.25 C15.850000381469727,2.25 15.850000381469727,-2.25 15.850000381469727,-2.25 C15.850000381469727,-2.25 22.149999618530273,-2.25 22.149999618530273,-2.25 C22.149999618530273,-2.25 22.149999618530273,2.25 22.149999618530273,2.25z M34.75,2.25 C34.75,2.25 28.450000762939453,2.25 28.450000762939453,2.25 C28.450000762939453,2.25 28.450000762939453,-2.25 28.450000762939453,-2.25 C28.450000762939453,-2.25 34.75,-2.25 34.75,-2.25 C34.75,-2.25 34.75,2.25 34.75,2.25z M47.45000076293945,2.25 C47.45000076293945,2.25 41.150001525878906,2.25 41.150001525878906,2.25 C41.150001525878906,2.25 41.150001525878906,-2.25 41.150001525878906,-2.25 C41.150001525878906,-2.25 47.45000076293945,-2.25 47.45000076293945,-2.25 C47.45000076293945,-2.25 47.45000076293945,2.25 47.45000076293945,2.25z"></path></g></g><g transform="matrix(1,0,0,1,118.55000305175781,131.4499969482422)" opacity="1" style="display: block;"><g opacity="1" transform="matrix(1,0,0,1,0,0)"><path fill="rgb(17,1,56)" fill-opacity="1" d=" M2.75,2.75 C2.75,2.75 -1.75,2.75 -1.75,2.75 C-1.75,2.75 -1.75,1.75 -1.75,1.75 C-1.75,1.75 -2.75,1.75 -2.75,1.75 C-2.75,1.75 -2.75,-2.75 -2.75,-2.75 C-2.75,-2.75 2.75,-2.75 2.75,-2.75 C2.75,-2.75 2.75,2.75 2.75,2.75z"></path></g></g><g transform="matrix(1,0,0,1,119.05000305175781,161.5500030517578)" opacity="1" style="display: block;"><g opacity="1" transform="matrix(1,0,0,1,0,0)"><path fill="rgb(17,1,56)" fill-opacity="1" d=" M2.25,-15.25 C2.25,-15.25 -2.25,-15.25 -2.25,-15.25 C-2.25,-15.25 -2.25,-21.350000381469727 -2.25,-21.350000381469727 C-2.25,-21.350000381469727 2.25,-21.350000381469727 2.25,-21.350000381469727 C2.25,-21.350000381469727 2.25,-15.25 2.25,-15.25z M2.25,-3.049999952316284 C2.25,-3.049999952316284 -2.25,-3.049999952316284 -2.25,-3.049999952316284 C-2.25,-3.049999952316284 -2.25,-9.149999618530273 -2.25,-9.149999618530273 C-2.25,-9.149999618530273 2.25,-9.149999618530273 2.25,-9.149999618530273 C2.25,-9.149999618530273 2.25,-3.049999952316284 2.25,-3.049999952316284z M2.25,9.149999618530273 C2.25,9.149999618530273 -2.25,9.149999618530273 -2.25,9.149999618530273 C-2.25,9.149999618530273 -2.25,3.049999952316284 -2.25,3.049999952316284 C-2.25,3.049999952316284 2.25,3.049999952316284 2.25,3.049999952316284 C2.25,3.049999952316284 2.25,9.149999618530273 2.25,9.149999618530273z M2.25,21.350000381469727 C2.25,21.350000381469727 -2.25,21.350000381469727 -2.25,21.350000381469727 C-2.25,21.350000381469727 -2.25,15.25 -2.25,15.25 C-2.25,15.25 2.25,15.25 2.25,15.25 C2.25,15.25 2.25,21.350000381469727 2.25,21.350000381469727z"></path></g></g><g transform="matrix(1,0,0,1,119.5,191.6999969482422)" opacity="1" style="display: block;"><g opacity="1" transform="matrix(1,0,0,1,0,0)"><path fill="rgb(17,1,56)" fill-opacity="1" d=" M2.700000047683716,2.700000047683716 C2.700000047683716,2.700000047683716 -2.700000047683716,2.700000047683716 -2.700000047683716,2.700000047683716 C-2.700000047683716,2.700000047683716 -2.700000047683716,-2.700000047683716 -2.700000047683716,-2.700000047683716 C-2.700000047683716,-2.700000047683716 1.7999999523162842,-2.700000047683716 1.7999999523162842,-2.700000047683716 C1.7999999523162842,-2.700000047683716 1.7999999523162842,-1.7999999523162842 1.7999999523162842,-1.7999999523162842 C1.7999999523162842,-1.7999999523162842 2.700000047683716,-1.7999999523162842 2.700000047683716,-1.7999999523162842 C2.700000047683716,-1.7999999523162842 2.700000047683716,2.700000047683716 2.700000047683716,2.700000047683716z"></path></g></g><g transform="matrix(1,0,0,1,184.35000610351562,192.14999389648438)" opacity="1" style="display: block;"><g opacity="1" transform="matrix(1,0,0,1,0,0)"><path fill="rgb(17,1,56)" fill-opacity="1" d=" M-49.04999923706055,2.25 C-49.04999923706055,2.25 -55.54999923706055,2.25 -55.54999923706055,2.25 C-55.54999923706055,2.25 -55.54999923706055,-2.25 -55.54999923706055,-2.25 C-55.54999923706055,-2.25 -49.04999923706055,-2.25 -49.04999923706055,-2.25 C-49.04999923706055,-2.25 -49.04999923706055,2.25 -49.04999923706055,2.25z M-35.95000076293945,2.25 C-35.95000076293945,2.25 -42.45000076293945,2.25 -42.45000076293945,2.25 C-42.45000076293945,2.25 -42.45000076293945,-2.25 -42.45000076293945,-2.25 C-42.45000076293945,-2.25 -35.95000076293945,-2.25 -35.95000076293945,-2.25 C-35.95000076293945,-2.25 -35.95000076293945,2.25 -35.95000076293945,2.25z M-22.950000762939453,2.25 C-22.950000762939453,2.25 -29.450000762939453,2.25 -29.450000762939453,2.25 C-29.450000762939453,2.25 -29.450000762939453,-2.25 -29.450000762939453,-2.25 C-29.450000762939453,-2.25 -22.950000762939453,-2.25 -22.950000762939453,-2.25 C-22.950000762939453,-2.25 -22.950000762939453,2.25 -22.950000762939453,2.25z M-9.850000381469727,2.25 C-9.850000381469727,2.25 -16.350000381469727,2.25 -16.350000381469727,2.25 C-16.350000381469727,2.25 -16.350000381469727,-2.25 -16.350000381469727,-2.25 C-16.350000381469727,-2.25 -9.850000381469727,-2.25 -9.850000381469727,-2.25 C-9.850000381469727,-2.25 -9.850000381469727,2.25 -9.850000381469727,2.25z M3.25,2.25 C3.25,2.25 -3.25,2.25 -3.25,2.25 C-3.25,2.25 -3.25,-2.25 -3.25,-2.25 C-3.25,-2.25 3.25,-2.25 3.25,-2.25 C3.25,-2.25 3.25,2.25 3.25,2.25z M16.350000381469727,2.25 C16.350000381469727,2.25 9.850000381469727,2.25 9.850000381469727,2.25 C9.850000381469727,2.25 9.850000381469727,-2.25 9.850000381469727,-2.25 C9.850000381469727,-2.25 16.350000381469727,-2.25 16.350000381469727,-2.25 C16.350000381469727,-2.25 16.350000381469727,2.25 16.350000381469727,2.25z M29.350000381469727,2.25 C29.350000381469727,2.25 22.850000381469727,2.25 22.850000381469727,2.25 C22.850000381469727,2.25 22.850000381469727,-2.25 22.850000381469727,-2.25 C22.850000381469727,-2.25 29.350000381469727,-2.25 29.350000381469727,-2.25 C29.350000381469727,-2.25 29.350000381469727,2.25 29.350000381469727,2.25z M42.45000076293945,2.25 C42.45000076293945,2.25 35.95000076293945,2.25 35.95000076293945,2.25 C35.95000076293945,2.25 35.95000076293945,-2.25 35.95000076293945,-2.25 C35.95000076293945,-2.25 42.45000076293945,-2.25 42.45000076293945,-2.25 C42.45000076293945,-2.25 42.45000076293945,2.25 42.45000076293945,2.25z M55.54999923706055,2.25 C55.54999923706055,2.25 49.04999923706055,2.25 49.04999923706055,2.25 C49.04999923706055,2.25 49.04999923706055,-2.25 49.04999923706055,-2.25 C49.04999923706055,-2.25 55.54999923706055,-2.25 55.54999923706055,-2.25 C55.54999923706055,-2.25 55.54999923706055,2.25 55.54999923706055,2.25z"></path></g></g><g transform="matrix(1,0,0,1,249.10000610351562,192.64999389648438)" opacity="1" style="display: block;"><g opacity="1" transform="matrix(1,0,0,1,0,0)"><path fill="rgb(17,1,56)" fill-opacity="1" d=" M2.700000047683716,2.75 C2.700000047683716,2.75 -1.7000000476837158,2.75 -1.7000000476837158,2.75 C-1.7000000476837158,2.75 -1.7000000476837158,1.75 -1.7000000476837158,1.75 C-1.7000000476837158,1.75 -2.700000047683716,1.75 -2.700000047683716,1.75 C-2.700000047683716,1.75 -2.700000047683716,-2.75 -2.700000047683716,-2.75 C-2.700000047683716,-2.75 2.700000047683716,-2.75 2.700000047683716,-2.75 C2.700000047683716,-2.75 2.700000047683716,2.75 2.700000047683716,2.75z"></path></g></g><g transform="matrix(1,0,0,1,249.5500030517578,245.6999969482422)" opacity="1" style="display: block;"><g opacity="1" transform="matrix(1,0,0,1,0,0)"><path fill="rgb(17,1,56)" fill-opacity="1" d=" M2.25,-36.900001525878906 C2.25,-36.900001525878906 -2.25,-36.900001525878906 -2.25,-36.900001525878906 C-2.25,-36.900001525878906 -2.25,-43.599998474121094 -2.25,-43.599998474121094 C-2.25,-43.599998474121094 2.25,-43.599998474121094 2.25,-43.599998474121094 C2.25,-43.599998474121094 2.25,-36.900001525878906 2.25,-36.900001525878906z M2.25,-23.5 C2.25,-23.5 -2.25,-23.5 -2.25,-23.5 C-2.25,-23.5 -2.25,-30.200000762939453 -2.25,-30.200000762939453 C-2.25,-30.200000762939453 2.25,-30.200000762939453 2.25,-30.200000762939453 C2.25,-30.200000762939453 2.25,-23.5 2.25,-23.5z M2.25,-10.100000381469727 C2.25,-10.100000381469727 -2.25,-10.100000381469727 -2.25,-10.100000381469727 C-2.25,-10.100000381469727 -2.25,-16.799999237060547 -2.25,-16.799999237060547 C-2.25,-16.799999237060547 2.25,-16.799999237060547 2.25,-16.799999237060547 C2.25,-16.799999237060547 2.25,-10.100000381469727 2.25,-10.100000381469727z M2.25,3.4000000953674316 C2.25,3.4000000953674316 -2.25,3.4000000953674316 -2.25,3.4000000953674316 C-2.25,3.4000000953674316 -2.25,-3.299999952316284 -2.25,-3.299999952316284 C-2.25,-3.299999952316284 2.25,-3.299999952316284 2.25,-3.299999952316284 C2.25,-3.299999952316284 2.25,3.4000000953674316 2.25,3.4000000953674316z M2.25,16.799999237060547 C2.25,16.799999237060547 -2.25,16.799999237060547 -2.25,16.799999237060547 C-2.25,16.799999237060547 -2.25,10.100000381469727 -2.25,10.100000381469727 C-2.25,10.100000381469727 2.25,10.100000381469727 2.25,10.100000381469727 C2.25,10.100000381469727 2.25,16.799999237060547 2.25,16.799999237060547z M2.25,30.200000762939453 C2.25,30.200000762939453 -2.25,30.200000762939453 -2.25,30.200000762939453 C-2.25,30.200000762939453 -2.25,23.5 -2.25,23.5 C-2.25,23.5 2.25,23.5 2.25,23.5 C2.25,23.5 2.25,30.200000762939453 2.25,30.200000762939453z M2.25,43.599998474121094 C2.25,43.599998474121094 -2.25,43.599998474121094 -2.25,43.599998474121094 C-2.25,43.599998474121094 -2.25,36.900001525878906 -2.25,36.900001525878906 C-2.25,36.900001525878906 2.25,36.900001525878906 2.25,36.900001525878906 C2.25,36.900001525878906 2.25,43.599998474121094 2.25,43.599998474121094z"></path></g></g><g transform="matrix(1,0,0,1,250.10000610351562,298.75)" opacity="1" style="display: block;"><g opacity="1" transform="matrix(1,0,0,1,0,0)"><path fill="rgb(17,1,56)" fill-opacity="1" d=" M2.700000047683716,2.75 C2.700000047683716,2.75 -2.700000047683716,2.75 -2.700000047683716,2.75 C-2.700000047683716,2.75 -2.700000047683716,-2.75 -2.700000047683716,-2.75 C-2.700000047683716,-2.75 1.7000000476837158,-2.75 1.7000000476837158,-2.75 C1.7000000476837158,-2.75 1.7000000476837158,-1.75 1.7000000476837158,-1.75 C1.7000000476837158,-1.75 2.700000047683716,-1.75 2.700000047683716,-1.75 C2.700000047683716,-1.75 2.700000047683716,2.75 2.700000047683716,2.75z"></path></g></g><g transform="matrix(1,0,0,1,330.8999938964844,299.25)" opacity="1" style="display: block;"><g opacity="1" transform="matrix(1,0,0,1,0,0)"><path fill="rgb(17,1,56)" fill-opacity="1" d=" M-65.5999984741211,2.25 C-65.5999984741211,2.25 -71.80000305175781,2.25 -71.80000305175781,2.25 C-71.80000305175781,2.25 -71.80000305175781,-2.25 -71.80000305175781,-2.25 C-71.80000305175781,-2.25 -65.5999984741211,-2.25 -65.5999984741211,-2.25 C-65.5999984741211,-2.25 -65.5999984741211,2.25 -65.5999984741211,2.25z M-53.099998474121094,2.25 C-53.099998474121094,2.25 -59.400001525878906,2.25 -59.400001525878906,2.25 C-59.400001525878906,2.25 -59.400001525878906,-2.25 -59.400001525878906,-2.25 C-59.400001525878906,-2.25 -53.20000076293945,-2.25 -53.20000076293945,-2.25 C-53.20000076293945,-2.25 -53.20000076293945,2.25 -53.20000076293945,2.25 C-53.20000076293945,2.25 -53.099998474121094,2.25 -53.099998474121094,2.25z M-40.599998474121094,2.25 C-40.599998474121094,2.25 -46.79999923706055,2.25 -46.79999923706055,2.25 C-46.79999923706055,2.25 -46.79999923706055,-2.25 -46.79999923706055,-2.25 C-46.79999923706055,-2.25 -40.599998474121094,-2.25 -40.599998474121094,-2.25 C-40.599998474121094,-2.25 -40.599998474121094,2.25 -40.599998474121094,2.25z M-28.100000381469727,2.25 C-28.100000381469727,2.25 -34.400001525878906,2.25 -34.400001525878906,2.25 C-34.400001525878906,2.25 -34.400001525878906,-2.25 -34.400001525878906,-2.25 C-34.400001525878906,-2.25 -28.200000762939453,-2.25 -28.200000762939453,-2.25 C-28.200000762939453,-2.25 -28.200000762939453,2.25 -28.200000762939453,2.25 C-28.200000762939453,2.25 -28.100000381469727,2.25 -28.100000381469727,2.25z M-15.600000381469727,2.25 C-15.600000381469727,2.25 -21.799999237060547,2.25 -21.799999237060547,2.25 C-21.799999237060547,2.25 -21.799999237060547,-2.25 -21.799999237060547,-2.25 C-21.799999237060547,-2.25 -15.600000381469727,-2.25 -15.600000381469727,-2.25 C-15.600000381469727,-2.25 -15.600000381469727,2.25 -15.600000381469727,2.25z M-3.0999999046325684,2.25 C-3.0999999046325684,2.25 -9.399999618530273,2.25 -9.399999618530273,2.25 C-9.399999618530273,2.25 -9.399999618530273,-2.25 -9.399999618530273,-2.25 C-9.399999618530273,-2.25 -3.200000047683716,-2.25 -3.200000047683716,-2.25 C-3.200000047683716,-2.25 -3.200000047683716,2.25 -3.200000047683716,2.25 C-3.200000047683716,2.25 -3.0999999046325684,2.25 -3.0999999046325684,2.25z M9.300000190734863,2.25 C9.300000190734863,2.25 3.0999999046325684,2.25 3.0999999046325684,2.25 C3.0999999046325684,2.25 3.0999999046325684,-2.25 3.0999999046325684,-2.25 C3.0999999046325684,-2.25 9.300000190734863,-2.25 9.300000190734863,-2.25 C9.300000190734863,-2.25 9.300000190734863,2.25 9.300000190734863,2.25z M21.799999237060547,2.25 C21.799999237060547,2.25 15.600000381469727,2.25 15.600000381469727,2.25 C15.600000381469727,2.25 15.600000381469727,-2.25 15.600000381469727,-2.25 C15.600000381469727,-2.25 21.799999237060547,-2.25 21.799999237060547,-2.25 C21.799999237060547,-2.25 21.799999237060547,2.25 21.799999237060547,2.25z M34.29999923706055,2.25 C34.29999923706055,2.25 28.100000381469727,2.25 28.100000381469727,2.25 C28.100000381469727,2.25 28.100000381469727,-2.25 28.100000381469727,-2.25 C28.100000381469727,-2.25 34.29999923706055,-2.25 34.29999923706055,-2.25 C34.29999923706055,-2.25 34.29999923706055,2.25 34.29999923706055,2.25z M46.79999923706055,2.25 C46.79999923706055,2.25 40.599998474121094,2.25 40.599998474121094,2.25 C40.599998474121094,2.25 40.599998474121094,-2.25 40.599998474121094,-2.25 C40.599998474121094,-2.25 46.79999923706055,-2.25 46.79999923706055,-2.25 C46.79999923706055,-2.25 46.79999923706055,2.25 46.79999923706055,2.25z M59.29999923706055,2.25 C59.29999923706055,2.25 53.099998474121094,2.25 53.099998474121094,2.25 C53.099998474121094,2.25 53.099998474121094,-2.25 53.099998474121094,-2.25 C53.099998474121094,-2.25 59.29999923706055,-2.25 59.29999923706055,-2.25 C59.29999923706055,-2.25 59.29999923706055,2.25 59.29999923706055,2.25z M71.80000305175781,2.25 C71.80000305175781,2.25 65.5999984741211,2.25 65.5999984741211,2.25 C65.5999984741211,2.25 65.5999984741211,-2.25 65.5999984741211,-2.25 C65.5999984741211,-2.25 71.80000305175781,-2.25 71.80000305175781,-2.25 C71.80000305175781,-2.25 71.80000305175781,2.25 71.80000305175781,2.25z"></path></g></g><g transform="matrix(1,0,0,1,411.70001220703125,298.75)" opacity="1" style="display: block;"><g opacity="1" transform="matrix(1,0,0,1,0,0)"><path fill="rgb(17,1,56)" fill-opacity="1" d=" M2.700000047683716,2.75 C2.700000047683716,2.75 -2.700000047683716,2.75 -2.700000047683716,2.75 C-2.700000047683716,2.75 -2.700000047683716,-1.75 -2.700000047683716,-1.75 C-2.700000047683716,-1.75 -1.7999999523162842,-1.75 -1.7999999523162842,-1.75 C-1.7999999523162842,-1.75 -1.7999999523162842,-2.75 -1.7999999523162842,-2.75 C-1.7999999523162842,-2.75 2.700000047683716,-2.75 2.700000047683716,-2.75 C2.700000047683716,-2.75 2.700000047683716,2.75 2.700000047683716,2.75z"></path></g></g><g transform="matrix(1,0,0,1,412.1499938964844,222.5)" opacity="1" style="display: block;"><g opacity="1" transform="matrix(1,0,0,1,0,0)"><path fill="rgb(17,1,56)" fill-opacity="1" d=" M2.25,-60.70000076293945 C2.25,-60.70000076293945 -2.25,-60.70000076293945 -2.25,-60.70000076293945 C-2.25,-60.70000076293945 -2.25,-67.0999984741211 -2.25,-67.0999984741211 C-2.25,-67.0999984741211 2.25,-67.0999984741211 2.25,-67.0999984741211 C2.25,-67.0999984741211 2.25,-60.70000076293945 2.25,-60.70000076293945z M2.25,-47.900001525878906 C2.25,-47.900001525878906 -2.25,-47.900001525878906 -2.25,-47.900001525878906 C-2.25,-47.900001525878906 -2.25,-54.29999923706055 -2.25,-54.29999923706055 C-2.25,-54.29999923706055 2.25,-54.29999923706055 2.25,-54.29999923706055 C2.25,-54.29999923706055 2.25,-47.900001525878906 2.25,-47.900001525878906z M2.25,-35.099998474121094 C2.25,-35.099998474121094 -2.25,-35.099998474121094 -2.25,-35.099998474121094 C-2.25,-35.099998474121094 -2.25,-41.5 -2.25,-41.5 C-2.25,-41.5 2.25,-41.5 2.25,-41.5 C2.25,-41.5 2.25,-35.099998474121094 2.25,-35.099998474121094z M2.25,-22.299999237060547 C2.25,-22.299999237060547 -2.25,-22.299999237060547 -2.25,-22.299999237060547 C-2.25,-22.299999237060547 -2.25,-28.700000762939453 -2.25,-28.700000762939453 C-2.25,-28.700000762939453 2.25,-28.700000762939453 2.25,-28.700000762939453 C2.25,-28.700000762939453 2.25,-22.299999237060547 2.25,-22.299999237060547z M2.25,-9.5 C2.25,-9.5 -2.25,-9.5 -2.25,-9.5 C-2.25,-9.5 -2.25,-15.899999618530273 -2.25,-15.899999618530273 C-2.25,-15.899999618530273 2.25,-15.899999618530273 2.25,-15.899999618530273 C2.25,-15.899999618530273 2.25,-9.5 2.25,-9.5z M2.25,3.200000047683716 C2.25,3.200000047683716 -2.25,3.200000047683716 -2.25,3.200000047683716 C-2.25,3.200000047683716 -2.25,-3.200000047683716 -2.25,-3.200000047683716 C-2.25,-3.200000047683716 2.25,-3.200000047683716 2.25,-3.200000047683716 C2.25,-3.200000047683716 2.25,3.200000047683716 2.25,3.200000047683716z M2.25,16 C2.25,16 -2.25,16 -2.25,16 C-2.25,16 -2.25,9.600000381469727 -2.25,9.600000381469727 C-2.25,9.600000381469727 2.25,9.600000381469727 2.25,9.600000381469727 C2.25,9.600000381469727 2.25,16 2.25,16z M2.25,28.799999237060547 C2.25,28.799999237060547 -2.25,28.799999237060547 -2.25,28.799999237060547 C-2.25,28.799999237060547 -2.25,22.399999618530273 -2.25,22.399999618530273 C-2.25,22.399999618530273 2.25,22.399999618530273 2.25,22.399999618530273 C2.25,22.399999618530273 2.25,28.799999237060547 2.25,28.799999237060547z M2.25,41.599998474121094 C2.25,41.599998474121094 -2.25,41.599998474121094 -2.25,41.599998474121094 C-2.25,41.599998474121094 -2.25,35.20000076293945 -2.25,35.20000076293945 C-2.25,35.20000076293945 2.25,35.20000076293945 2.25,35.20000076293945 C2.25,35.20000076293945 2.25,41.599998474121094 2.25,41.599998474121094z M2.25,54.400001525878906 C2.25,54.400001525878906 -2.25,54.400001525878906 -2.25,54.400001525878906 C-2.25,54.400001525878906 -2.25,48 -2.25,48 C-2.25,48 2.25,48 2.25,48 C2.25,48 2.25,54.400001525878906 2.25,54.400001525878906z M2.25,67.0999984741211 C2.25,67.0999984741211 -2.25,67.0999984741211 -2.25,67.0999984741211 C-2.25,67.0999984741211 -2.25,60.70000076293945 -2.25,60.70000076293945 C-2.25,60.70000076293945 2.25,60.70000076293945 2.25,60.70000076293945 C2.25,60.70000076293945 2.25,67.0999984741211 2.25,67.0999984741211z"></path></g></g><g transform="matrix(1,0,0,1,412.6499938964844,146.35000610351562)" opacity="1" style="display: block;"><g opacity="1" transform="matrix(1,0,0,1,0,0)"><path fill="rgb(17,1,56)" fill-opacity="1" d=" M1.75,2.75 C1.75,2.75 -2.75,2.75 -2.75,2.75 C-2.75,2.75 -2.75,-2.75 -2.75,-2.75 C-2.75,-2.75 2.75,-2.75 2.75,-2.75 C2.75,-2.75 2.75,1.75 2.75,1.75 C2.75,1.75 1.75,1.75 1.75,1.75 C1.75,1.75 1.75,2.75 1.75,2.75z"></path></g></g><g transform="matrix(1,0,0,1,501.25,145.85000610351562)" opacity="1" style="display: block;"><g opacity="1" transform="matrix(1,0,0,1,0,0)"><path fill="rgb(17,1,56)" fill-opacity="1" d=" M-73.1500015258789,2.25 C-73.1500015258789,2.25 -79.55000305175781,2.25 -79.55000305175781,2.25 C-79.55000305175781,2.25 -79.55000305175781,-2.25 -79.55000305175781,-2.25 C-79.55000305175781,-2.25 -73.1500015258789,-2.25 -73.1500015258789,-2.25 C-73.1500015258789,-2.25 -73.1500015258789,2.25 -73.1500015258789,2.25z M-60.45000076293945,2.25 C-60.45000076293945,2.25 -66.75,2.25 -66.75,2.25 C-66.75,2.25 -66.75,-2.25 -66.75,-2.25 C-66.75,-2.25 -60.349998474121094,-2.25 -60.349998474121094,-2.25 C-60.349998474121094,-2.25 -60.349998474121094,2.25 -60.349998474121094,2.25 C-60.349998474121094,2.25 -60.45000076293945,2.25 -60.45000076293945,2.25z M-47.75,2.25 C-47.75,2.25 -54.150001525878906,2.25 -54.150001525878906,2.25 C-54.150001525878906,2.25 -54.150001525878906,-2.25 -54.150001525878906,-2.25 C-54.150001525878906,-2.25 -47.75,-2.25 -47.75,-2.25 C-47.75,-2.25 -47.75,2.25 -47.75,2.25z M-34.95000076293945,2.25 C-34.95000076293945,2.25 -41.349998474121094,2.25 -41.349998474121094,2.25 C-41.349998474121094,2.25 -41.349998474121094,-2.25 -41.349998474121094,-2.25 C-41.349998474121094,-2.25 -34.95000076293945,-2.25 -34.95000076293945,-2.25 C-34.95000076293945,-2.25 -34.95000076293945,2.25 -34.95000076293945,2.25z M-22.25,2.25 C-22.25,2.25 -28.649999618530273,2.25 -28.649999618530273,2.25 C-28.649999618530273,2.25 -28.649999618530273,-2.25 -28.649999618530273,-2.25 C-28.649999618530273,-2.25 -22.25,-2.25 -22.25,-2.25 C-22.25,-2.25 -22.25,2.25 -22.25,2.25z M-9.550000190734863,2.25 C-9.550000190734863,2.25 -15.949999809265137,2.25 -15.949999809265137,2.25 C-15.949999809265137,2.25 -15.949999809265137,-2.25 -15.949999809265137,-2.25 C-15.949999809265137,-2.25 -9.550000190734863,-2.25 -9.550000190734863,-2.25 C-9.550000190734863,-2.25 -9.550000190734863,2.25 -9.550000190734863,2.25z M3.1500000953674316,2.25 C3.1500000953674316,2.25 -3.25,2.25 -3.25,2.25 C-3.25,2.25 -3.25,-2.25 -3.25,-2.25 C-3.25,-2.25 3.1500000953674316,-2.25 3.1500000953674316,-2.25 C3.1500000953674316,-2.25 3.1500000953674316,2.25 3.1500000953674316,2.25z M15.949999809265137,2.25 C15.949999809265137,2.25 9.550000190734863,2.25 9.550000190734863,2.25 C9.550000190734863,2.25 9.550000190734863,-2.25 9.550000190734863,-2.25 C9.550000190734863,-2.25 15.949999809265137,-2.25 15.949999809265137,-2.25 C15.949999809265137,-2.25 15.949999809265137,2.25 15.949999809265137,2.25z M28.649999618530273,2.25 C28.649999618530273,2.25 22.25,2.25 22.25,2.25 C22.25,2.25 22.25,-2.25 22.25,-2.25 C22.25,-2.25 28.649999618530273,-2.25 28.649999618530273,-2.25 C28.649999618530273,-2.25 28.649999618530273,2.25 28.649999618530273,2.25z M41.349998474121094,2.25 C41.349998474121094,2.25 34.95000076293945,2.25 34.95000076293945,2.25 C34.95000076293945,2.25 34.95000076293945,-2.25 34.95000076293945,-2.25 C34.95000076293945,-2.25 41.349998474121094,-2.25 41.349998474121094,-2.25 C41.349998474121094,-2.25 41.349998474121094,2.25 41.349998474121094,2.25z M54.04999923706055,2.25 C54.04999923706055,2.25 47.650001525878906,2.25 47.650001525878906,2.25 C47.650001525878906,2.25 47.650001525878906,-2.25 47.650001525878906,-2.25 C47.650001525878906,-2.25 54.04999923706055,-2.25 54.04999923706055,-2.25 C54.04999923706055,-2.25 54.04999923706055,2.25 54.04999923706055,2.25z M66.8499984741211,2.25 C66.8499984741211,2.25 60.45000076293945,2.25 60.45000076293945,2.25 C60.45000076293945,2.25 60.45000076293945,-2.25 60.45000076293945,-2.25 C60.45000076293945,-2.25 66.8499984741211,-2.25 66.8499984741211,-2.25 C66.8499984741211,-2.25 66.8499984741211,2.25 66.8499984741211,2.25z M79.55000305175781,2.25 C79.55000305175781,2.25 73.1500015258789,2.25 73.1500015258789,2.25 C73.1500015258789,2.25 73.1500015258789,-2.25 73.1500015258789,-2.25 C73.1500015258789,-2.25 79.55000305175781,-2.25 79.55000305175781,-2.25 C79.55000305175781,-2.25 79.55000305175781,2.25 79.55000305175781,2.25z"></path></g></g><g transform="matrix(1,0,0,1,589.8499755859375,146.35000610351562)" opacity="1" style="display: block;"><g opacity="1" transform="matrix(1,0,0,1,0,0)"><path fill="rgb(17,1,56)" fill-opacity="1" d=" M2.75,2.75 C2.75,2.75 -1.75,2.75 -1.75,2.75 C-1.75,2.75 -1.75,1.75 -1.75,1.75 C-1.75,1.75 -2.75,1.75 -2.75,1.75 C-2.75,1.75 -2.75,-2.75 -2.75,-2.75 C-2.75,-2.75 2.75,-2.75 2.75,-2.75 C2.75,-2.75 2.75,2.75 2.75,2.75z"></path></g></g><g transform="matrix(1,0,0,1,590.3499755859375,170.85000610351562)" opacity="1" style="display: block;"><g opacity="1" transform="matrix(1,0,0,1,0,0)"><path fill="rgb(17,1,56)" fill-opacity="1" d=" M2.25,-9.350000381469727 C2.25,-9.350000381469727 -2.25,-9.350000381469727 -2.25,-9.350000381469727 C-2.25,-9.350000381469727 -2.25,-15.550000190734863 -2.25,-15.550000190734863 C-2.25,-15.550000190734863 2.25,-15.550000190734863 2.25,-15.550000190734863 C2.25,-15.550000190734863 2.25,-9.350000381469727 2.25,-9.350000381469727z M2.25,3.049999952316284 C2.25,3.049999952316284 -2.25,3.049999952316284 -2.25,3.049999952316284 C-2.25,3.049999952316284 -2.25,-3.1500000953674316 -2.25,-3.1500000953674316 C-2.25,-3.1500000953674316 2.25,-3.1500000953674316 2.25,-3.1500000953674316 C2.25,-3.1500000953674316 2.25,3.049999952316284 2.25,3.049999952316284z M2.25,15.550000190734863 C2.25,15.550000190734863 -2.25,15.550000190734863 -2.25,15.550000190734863 C-2.25,15.550000190734863 -2.25,9.350000381469727 -2.25,9.350000381469727 C-2.25,9.350000381469727 2.25,9.350000381469727 2.25,9.350000381469727 C2.25,9.350000381469727 2.25,15.550000190734863 2.25,15.550000190734863z"></path></g></g><g transform="matrix(1,0,0,1,590.3499755859375,195.64999389648438)" opacity="1" style="display: block;"><g opacity="1" transform="matrix(1,0,0,1,0,0)"><path fill="rgb(17,1,56)" fill-opacity="1" d=" M2.25,-3.049999952316284 C2.25,-3.049999952316284 2.25,3.049999952316284 2.25,3.049999952316284 C2.25,3.049999952316284 -2.25,3.049999952316284 -2.25,3.049999952316284 C-2.25,3.049999952316284 -2.25,-3.049999952316284 -2.25,-3.049999952316284 C-2.25,-3.049999952316284 2.25,-3.049999952316284 2.25,-3.049999952316284z"></path></g></g></g></g></svg>